<?xml version="1.0" encoding="UTF-8"?>
<svg version="1.1" xmlns="http://www.w3.org/2000/svg" width="515" height="447">
<path d="M0 0 C7.4186581 4.31707223 12.40557202 10.3357802 14.765625 18.609375 C16.67876981 27.55066983 15.67198555 36.40748563 10.703125 44.234375 C8.765625 46.609375 8.765625 46.609375 6.765625 47.609375 C7.3946875 47.93808594 8.02375 48.26679687 8.671875 48.60546875 C9.5278125 49.08113281 10.38375 49.55679688 11.265625 50.046875 C12.1009375 50.49933594 12.93625 50.95179687 13.796875 51.41796875 C22.23661773 57.64783148 26.56915545 65.3797514 30.515625 74.921875 C30.97066406 75.97310547 31.42570312 77.02433594 31.89453125 78.10742188 C43.11681727 104.41672929 43.11681727 104.41672929 38.765625 116.609375 C36.59230614 120.01424121 34.66678994 122.38329459 30.765625 123.609375 C27.04746399 123.80506768 24.30533218 123.78927739 20.765625 122.609375 C20.85126709 123.31843994 20.93690918 124.02750488 21.02514648 124.75805664 C24.15314304 150.81061404 24.15314304 150.81061404 24.765625 163.609375 C25.44109375 163.84011719 26.1165625 164.07085937 26.8125 164.30859375 C36.17010609 167.72979944 36.17010609 167.72979944 38.765625 172.609375 C40.00165946 176.22960862 40.91868123 179.88081779 41.765625 183.609375 C41.97316406 184.4859375 42.18070312 185.3625 42.39453125 186.265625 C43.54360641 191.47262292 44.39659987 196.29115826 43.765625 201.609375 C39.23062964 207.47819253 33.14555244 210.81641864 26.078125 212.734375 C24.96050781 213.04632813 23.84289062 213.35828125 22.69140625 213.6796875 C21.38413979 213.99513548 20.07542969 214.30463788 18.765625 214.609375 C18.06026611 214.79032715 17.35490723 214.9712793 16.62817383 215.15771484 C7.47230405 217.19722158 -1.86019126 216.98151411 -11.19165039 216.97998047 C-14.13423073 216.98431949 -17.07526529 217.02062842 -20.01757812 217.05859375 C-29.55901439 217.11644793 -38.73473678 216.68473333 -48.11328125 214.8359375 C-49.29747902 214.60274307 -49.29747902 214.60274307 -50.50559998 214.36483765 C-58.82780962 212.53331038 -66.02283026 209.51034251 -72.234375 203.609375 C-73.75118212 200.57576076 -73.1511397 197.53342938 -72.921875 194.234375 C-72.87264893 193.51918701 -72.82342285 192.80399902 -72.77270508 192.06713867 C-71.58050752 176.09454274 -71.58050752 176.09454274 -68.609375 170.609375 C-64.16524276 166.86694785 -60.09286139 164.609375 -54.234375 164.609375 C-54.13640625 163.7328125 -54.0384375 162.85625 -53.9375 161.953125 C-52.46159196 149.43335338 -50.37209718 137.03119008 -48.234375 124.609375 C-48.976875 125.09664062 -49.719375 125.58390625 -50.484375 126.0859375 C-54.2236671 128.15742034 -57.06335438 128.23672363 -61.234375 127.609375 C-65.66080127 125.59736306 -69.23954788 122.73907339 -71.32177734 118.28149414 C-74.42263821 109.20206071 -71.332912 100.29752678 -68.29150391 91.62133789 C-67.6136028 89.68395767 -66.96318927 87.73897678 -66.31640625 85.79101562 C-61.84692906 72.55592691 -57.06257485 59.68937882 -44.546875 52.234375 C-41.80500568 50.88930703 -39.10326495 49.65260771 -36.234375 48.609375 C-36.63269531 48.196875 -37.03101563 47.784375 -37.44140625 47.359375 C-43.0938776 41.1980437 -46.45579945 34.17112059 -46.234375 25.609375 C-44.86975189 15.80528665 -41.36613391 9.74113391 -34.484375 2.859375 C-23.47743999 -4.76081078 -12.1706573 -5.67114398 0 0 Z M-43.234375 98.609375 C-42.234375 101.609375 -42.234375 101.609375 -42.234375 101.609375 Z M-44.234375 102.609375 C-43.234375 106.609375 -43.234375 106.609375 -43.234375 106.609375 Z M-45.234375 107.609375 C-45.234375 109.259375 -45.234375 110.909375 -45.234375 112.609375 C-44.904375 112.609375 -44.574375 112.609375 -44.234375 112.609375 C-44.234375 110.959375 -44.234375 109.309375 -44.234375 107.609375 C-44.564375 107.609375 -44.894375 107.609375 -45.234375 107.609375 Z M-13.234375 134.609375 C-14.554375 143.519375 -15.874375 152.429375 -17.234375 161.609375 C-14.594375 161.939375 -11.954375 162.269375 -9.234375 162.609375 C-9.3745748 159.25494836 -9.52255928 155.90090725 -9.671875 152.546875 C-9.71119141 151.60392578 -9.75050781 150.66097656 -9.79101562 149.68945312 C-10.02162896 144.59822022 -10.4042877 139.63872744 -11.234375 134.609375 C-11.894375 134.609375 -12.554375 134.609375 -13.234375 134.609375 Z M-9.234375 163.609375 C-9.234375 165.919375 -9.234375 168.229375 -9.234375 170.609375 C-8.904375 170.609375 -8.574375 170.609375 -8.234375 170.609375 C-8.234375 168.299375 -8.234375 165.989375 -8.234375 163.609375 C-8.564375 163.609375 -8.894375 163.609375 -9.234375 163.609375 Z M-59.234375 176.609375 C-59.06977882 178.53568046 -59.06977882 178.53568046 -58.234375 180.609375 C-41.80252267 192.62620438 -10.51395559 190.39984061 8.765625 187.609375 C11.59733567 187.07929089 14.40026101 186.46210258 17.203125 185.796875 C17.86594482 185.64379883 18.52876465 185.49072266 19.21166992 185.33300781 C23.81548433 184.15359055 26.99910412 182.38623815 30.765625 179.609375 C30.270625 178.124375 30.270625 178.124375 29.765625 176.609375 C28.8375 177.3725 27.909375 178.135625 26.953125 178.921875 C14.30094686 187.79092661 -6.42560933 187.15009554 -21.234375 186.609375 C-22.35972656 186.57972656 -23.48507813 186.55007813 -24.64453125 186.51953125 C-36.78873094 185.95818718 -49.31753331 184.04700627 -59.234375 176.609375 Z " fill="#F26F0D" transform="translate(142.234375,72.390625)"/>
<path d="M0 0 C0.66 0 1.32 0 2 0 C1.52785122 4.31329901 1.04611289 8.62547253 0.5625 12.9375 C0.42779297 14.16919922 0.29308594 15.40089844 0.15429688 16.66992188 C0.02216797 17.83974609 -0.10996094 19.00957031 -0.24609375 20.21484375 C-0.36654053 21.29886475 -0.4869873 22.38288574 -0.61108398 23.49975586 C-1 26 -1 26 -2 27 C-2.397493 29.34723966 -2.74368723 31.70328548 -3.0625 34.0625 C-3.23910156 35.35285156 -3.41570312 36.64320313 -3.59765625 37.97265625 C-3.73042969 38.97167969 -3.86320312 39.97070312 -4 41 C-4.66 41 -5.32 41 -6 41 C-6.761788 48.32613141 -7.40711812 55.65835626 -8 63 C-8.66 63 -9.32 63 -10 63 C-9.90460938 63.91523438 -9.80921875 64.83046875 -9.7109375 65.7734375 C-9.60007812 66.96195312 -9.48921875 68.15046875 -9.375 69.375 C-9.25898437 70.55835938 -9.14296875 71.74171875 -9.0234375 72.9609375 C-9.01570313 73.96382813 -9.00796875 74.96671875 -9 76 C-11 78 -11 78 -14.125 78.125 C-15.07375 78.08375 -16.0225 78.0425 -17 78 C-16.67 78.99 -16.34 79.98 -16 81 C-15.34 81.33 -14.68 81.66 -14 82 C-13.33333333 84 -12.66666667 86 -12 88 C-11.34 88.33 -10.68 88.66 -10 89 C-10 89.66 -10 90.32 -10 91 C-8.68 91 -7.36 91 -6 91 C-6 91.66 -6 92.32 -6 93 C-4.0509375 92.9690625 -4.0509375 92.9690625 -2.0625 92.9375 C-0.70834367 92.91600546 0.64756083 92.92851801 2 93 C2.33 93.33 2.66 93.66 3 94 C6.10085221 94.16041193 9.18187579 94.25963402 12.28515625 94.31640625 C13.68138466 94.3475779 13.68138466 94.3475779 15.1058197 94.37937927 C18.09130182 94.44497931 21.07687484 94.50380802 24.0625 94.5625 C26.08138976 94.6056753 28.1002702 94.64928925 30.11914062 94.69335938 C35.07933297 94.80067129 40.03961709 94.90190888 45 95 C45 95.33 45 95.66 45 96 C36.58768465 97.92281494 28.60787848 98.28973315 20 98 C18.86433594 97.97035156 17.72867188 97.94070313 16.55859375 97.91015625 C5.0572397 97.37368809 -8.14311898 95.97119292 -17 88 C-16.33658788 91.03779434 -16.33658788 91.03779434 -14.28515625 92.09765625 C6.64017688 101.18123671 36.58037627 100.43371723 58.5 95.125 C59.17119873 94.96354492 59.84239746 94.80208984 60.53393555 94.63574219 C64.45436246 93.61667853 67.64068136 92.26107985 71 90 C70.67 88.02 70.34 86.04 70 84 C71.65 84 73.3 84 75 84 C74.67 83.01 74.34 82.02 74 81 C73.34 80.67 72.68 80.34 72 80 C72 79.34 72 78.68 72 78 C71.2575 77.87625 70.515 77.7525 69.75 77.625 C67.17069951 77.03879534 65.2517838 76.36715445 63 75 C61.5293223 72.0586446 61.82951001 69.39772595 61.8125 66.125 C61.79832031 64.89007813 61.78414063 63.65515625 61.76953125 62.3828125 C61.98234545 59.25913288 62.34762774 57.59938404 64 55 C65.18031238 58.84841348 65.33235351 62.758279 65.5625 66.75 C65.60568359 67.44738281 65.64886719 68.14476562 65.69335938 68.86328125 C65.79889596 70.57531922 65.8998991 72.28763561 66 74 C66.67546875 74.23074219 67.3509375 74.46148437 68.046875 74.69921875 C77.40448109 78.12042444 77.40448109 78.12042444 80 83 C81.23603446 86.62023362 82.15305623 90.27144279 83 94 C83.20753906 94.8765625 83.41507812 95.753125 83.62890625 96.65625 C84.77798141 101.86324792 85.63097487 106.68178326 85 112 C80.46500464 117.86881753 74.37992744 121.20704364 67.3125 123.125 C66.19488281 123.43695313 65.07726562 123.74890625 63.92578125 124.0703125 C62.61851479 124.38576048 61.30980469 124.69526288 60 125 C59.29464111 125.18095215 58.58928223 125.3619043 57.86254883 125.54833984 C48.70667905 127.58784658 39.37418374 127.37213911 30.04272461 127.37060547 C27.10014427 127.37494449 24.15910971 127.41125342 21.21679688 127.44921875 C11.67536061 127.50707293 2.49963822 127.07535833 -6.87890625 125.2265625 C-8.06310402 124.99336807 -8.06310402 124.99336807 -9.27122498 124.75546265 C-17.59343462 122.92393538 -24.78845526 119.90096751 -31 114 C-32.51680712 110.96638576 -31.9167647 107.92405438 -31.6875 104.625 C-31.63827393 103.90981201 -31.58904785 103.19462402 -31.53833008 102.45776367 C-30.34613252 86.48516774 -30.34613252 86.48516774 -27.375 81 C-22.93086776 77.25757285 -18.85848639 75 -13 75 C-12.90203125 74.10023438 -12.8040625 73.20046875 -12.703125 72.2734375 C-11.76265644 64.1821649 -10.50154805 56.2444151 -8.9375 48.25 C-7.33059746 39.96119391 -6.48668654 31.874826 -6.32788086 23.43261719 C-6.2276461 19.11937597 -5.81843357 15.98222856 -4 12 C-3.63179131 9.8293789 -3.63179131 9.8293789 -3.5 7.75 C-3.335 6.5125 -3.17 5.275 -3 4 C-2.34 3.67 -1.68 3.34 -1 3 C-0.67 2.01 -0.34 1.02 0 0 Z M-2 9 C-1 12 -1 12 -1 12 Z M-3 13 C-2 17 -2 17 -2 17 Z M-4 18 C-4 19.65 -4 21.3 -4 23 C-3.67 23 -3.34 23 -3 23 C-3 21.35 -3 19.7 -3 18 C-3.33 18 -3.66 18 -4 18 Z " fill="#F06F0F" transform="translate(101,162)"/>
<path d="M0 0 C0.72364746 0.00483398 1.44729492 0.00966797 2.19287109 0.01464844 C17.98484874 0.19164886 17.98484874 0.19164886 23.4375 5.125 C26.55866166 10.87455725 26.87936625 15.72000187 26.8359375 22.1875 C26.83880768 23.13761963 26.84167786 24.08773926 26.84463501 25.06665039 C26.84666812 27.06690063 26.8411912 29.06717109 26.82861328 31.06738281 C26.81254906 34.11568992 26.82848786 37.16267126 26.84765625 40.2109375 C26.84567368 42.16146124 26.84182973 44.11198415 26.8359375 46.0625 C26.84504654 47.41903687 26.84504654 47.41903687 26.8543396 48.80297852 C26.78202339 55.36272886 25.64720259 59.98042323 21.8125 65.4375 C13.89641035 71.06209002 1.71063951 69.53313204 -7.5625 69.125 C-8.2225 68.795 -8.8825 68.465 -9.5625 68.125 C-9.5625 46.015 -9.5625 23.905 -9.5625 1.125 C-6.51389804 -0.39930098 -3.34160203 -0.02272683 0 0 Z M4.4375 13.125 C4.4375 27.315 4.4375 41.505 4.4375 56.125 C6.4175 56.125 8.3975 56.125 10.4375 56.125 C13.04422701 53.51827299 12.67526223 51.70572352 12.68974304 48.15600586 C12.68255753 47.34139893 12.67537201 46.52679199 12.66796875 45.6875 C12.66751053 44.85162354 12.66705231 44.01574707 12.6665802 43.15454102 C12.66355692 41.38589052 12.65566835 39.61724272 12.64331055 37.84863281 C12.62507376 35.13597212 12.62280071 32.42365304 12.62304688 29.7109375 C12.61813095 27.9947887 12.6123023 26.27864223 12.60546875 24.5625 C12.60435593 23.74789307 12.6032431 22.93328613 12.60209656 22.09399414 C12.66922344 17.97713992 12.66922344 17.97713992 11.4375 14.125 C9.1275 13.795 6.8175 13.465 4.4375 13.125 Z " fill="#F26F10" transform="translate(429.5625,191.875)"/>
<path d="M0 0 C1.32644531 0.02513672 1.32644531 0.02513672 2.6796875 0.05078125 C8.0983201 0.37889914 12.26859246 1.9302524 16 6 C20.12566351 12.68974411 19.62425975 19.37570753 19 27 C18.14977737 30.53970236 16.80119284 33.12465062 14.31713867 35.83862305 C12.72793546 37.94600083 12.72793546 37.94600083 13.30200195 40.54614258 C13.61097412 41.48611084 13.91994629 42.4260791 14.23828125 43.39453125 C14.56376953 44.43287109 14.88925781 45.47121094 15.22460938 46.54101562 C15.58361328 47.62060547 15.94261719 48.70019531 16.3125 49.8125 C20.52497808 62.76254857 20.52497808 62.76254857 20 69 C17.87506859 69.02693575 15.75004088 69.04636628 13.625 69.0625 C12.44164062 69.07410156 11.25828125 69.08570313 10.0390625 69.09765625 C7 69 7 69 5 68 C4.31396484 65.94628906 4.31396484 65.94628906 3.7109375 63.265625 C3.49179687 62.29882812 3.27265625 61.33203125 3.046875 60.3359375 C2.71429688 58.80839844 2.71429688 58.80839844 2.375 57.25 C2.03082031 55.74566406 2.03082031 55.74566406 1.6796875 54.2109375 C0.67675168 49.70966604 -0.13644675 45.63085672 0 41 C-0.66 41 -1.32 41 -2 41 C-1.67 49.91 -1.34 58.82 -1 68 C-3.74505463 69.37252731 -6.00327412 69.13229255 -9.0625 69.125 C-10.68865234 69.12886719 -10.68865234 69.12886719 -12.34765625 69.1328125 C-15 69 -15 69 -16 68 C-16.09417773 65.91380978 -16.11742878 63.82439523 -16.11352539 61.73608398 C-16.11367142 61.08244873 -16.11381744 60.42881348 -16.1139679 59.75537109 C-16.11326883 57.58557872 -16.10547678 55.41587121 -16.09765625 53.24609375 C-16.09579205 51.74536689 -16.09436816 50.24463943 -16.09336853 48.74391174 C-16.08954352 44.78681774 -16.0797134 40.82976022 -16.06866455 36.87268066 C-16.05845006 32.83765151 -16.05387083 28.80261647 -16.04882812 24.76757812 C-16.03809111 16.84503531 -16.0210149 8.92252219 -16 1 C-11.41197912 -1.29401044 -5.03093226 -0.11409242 0 0 Z M-2 13 C-2 17.95 -2 22.9 -2 28 C-0.02 28 1.96 28 4 28 C5.34346122 23.96961634 5.26676927 20.20161608 5 16 C3.91325006 13.91015769 3.91325006 13.91015769 2 13 C0.68 13 -0.64 13 -2 13 Z " fill="#F06E0F" transform="translate(365,192)"/>
<path d="M0 0 C3.62927145 1.84230991 5.3581178 3.84632446 6.88671875 7.5859375 C8.4510453 13.32404911 7.90466924 18.99003008 7.79296875 24.91015625 C3.17296875 24.91015625 -1.44703125 24.91015625 -6.20703125 24.91015625 C-6.70203125 18.47515625 -6.70203125 18.47515625 -7.20703125 11.91015625 C-8.52703125 11.91015625 -9.84703125 11.91015625 -11.20703125 11.91015625 C-11.53703125 26.43015625 -11.86703125 40.95015625 -12.20703125 55.91015625 C-10.22703125 55.91015625 -8.24703125 55.91015625 -6.20703125 55.91015625 C-6.20703125 51.29015625 -6.20703125 46.67015625 -6.20703125 41.91015625 C-7.85703125 41.58015625 -9.50703125 41.25015625 -11.20703125 40.91015625 C-11.20703125 36.95015625 -11.20703125 32.99015625 -11.20703125 28.91015625 C-4.93703125 28.91015625 1.33296875 28.91015625 7.79296875 28.91015625 C7.8158766 34.30368214 7.83580401 39.69704046 7.84790039 45.09057617 C7.85294106 46.926845 7.85977352 48.76310979 7.8684082 50.59936523 C7.88048547 53.23292026 7.88619956 55.86642241 7.890625 58.5 C7.89578629 59.32604233 7.90094757 60.15208466 7.90626526 61.00315857 C7.9064608 62.97251993 7.85501027 64.94177239 7.79296875 66.91015625 C6.79296875 67.91015625 6.79296875 67.91015625 3.41796875 68.09765625 C-0.20703125 67.91015625 -0.20703125 67.91015625 -3.20703125 65.91015625 C-3.84640625 66.42578125 -4.48578125 66.94140625 -5.14453125 67.47265625 C-9.42144716 69.48018821 -12.69416445 69.08015875 -17.20703125 67.91015625 C-21.67700869 65.59239017 -24.16316887 63.49905378 -26.20703125 58.91015625 C-26.6632337 55.17276976 -26.65115115 51.45686692 -26.640625 47.6953125 C-26.64586685 46.60681503 -26.6511087 45.51831757 -26.6565094 44.39683533 C-26.66292443 42.09798026 -26.66159936 39.79909235 -26.65307617 37.50024414 C-26.64456963 33.9884986 -26.67333137 30.47838167 -26.70507812 26.96679688 C-26.70669037 24.73046924 -26.70611216 22.49413872 -26.703125 20.2578125 C-26.71435898 19.21077652 -26.72559296 18.16374054 -26.73716736 17.0849762 C-26.67957525 11.04120497 -26.27082647 7.49105322 -22.20703125 2.91015625 C-14.91188879 -2.59842071 -8.44318779 -3.51119028 0 0 Z " fill="#E96C11" transform="translate(264.20703125,193.08984375)"/>
<path d="M0 0 C0.33 17.82 0.66 35.64 1 54 C2.65 54.33 4.3 54.66 6 55 C6.33 36.85 6.66 18.7 7 0 C11.24823725 -0.84964745 14.71005077 -1.16499805 19 -1 C20.68136778 0.68136778 20.13607706 2.76132273 20.14526367 5.06713867 C20.15164352 6.14883835 20.15802338 7.23053802 20.16459656 8.34501648 C20.16570938 9.52409073 20.1668222 10.70316498 20.16796875 11.91796875 C20.17296135 13.72567497 20.17296135 13.72567497 20.17805481 15.56990051 C20.18313079 18.12805804 20.18546293 20.68622221 20.18530273 23.24438477 C20.18748093 27.15326961 20.2056069 31.06186859 20.22460938 34.97070312 C20.22754483 37.45312403 20.22952861 39.93554628 20.23046875 42.41796875 C20.23765427 43.58692184 20.24483978 44.75587494 20.25224304 45.96025085 C20.2334586 52.66082571 19.91304811 57.83611274 16.375 63.6875 C12.58439644 67.37835083 8.77759755 68.93141734 3.46875 69.0625 C-1.55683952 68.69920437 -5.78300046 67.91173778 -10 65 C-13.44035229 60.6501747 -14.51018118 57.71430419 -14.609375 52.1953125 C-14.6417627 50.89698486 -14.67415039 49.59865723 -14.70751953 48.26098633 C-14.72234179 46.88233118 -14.73649016 45.50366864 -14.75 44.125 C-14.77701823 42.71440803 -14.80550574 41.30384345 -14.83544922 39.89331055 C-14.91393387 35.92897304 -14.95863828 31.96489233 -15 28 C-15.02809204 26.27473048 -15.05662935 24.54946804 -15.0859375 22.82421875 C-15.18166573 15.17127877 -14.80729044 7.61159553 -14 0 C-12.41773035 -0.19627391 -10.83410729 -0.38165538 -9.25 -0.5625 C-8.36828125 -0.66691406 -7.4865625 -0.77132812 -6.578125 -0.87890625 C-4 -1 -4 -1 0 0 Z " fill="#EF6D0F" transform="translate(326,193)"/>
<path d="M0 0 C1.20591797 -0.00128906 2.41183594 -0.00257813 3.65429688 -0.00390625 C4.92466797 -0.00003906 6.19503906 0.00382813 7.50390625 0.0078125 C8.77041016 0.00394531 10.03691406 0.00007812 11.34179688 -0.00390625 C12.54900391 -0.00261719 13.75621094 -0.00132812 15 0 C16.11431396 0.00112793 17.22862793 0.00225586 18.37670898 0.00341797 C21.06640625 0.1328125 21.06640625 0.1328125 23.06640625 1.1328125 C23.09327904 2.94523302 23.1127434 4.75776483 23.12890625 6.5703125 C23.14050781 7.57964844 23.15210938 8.58898437 23.1640625 9.62890625 C23.06640625 12.1328125 23.06640625 12.1328125 22.06640625 13.1328125 C17.39795397 13.27707864 12.73774672 13.17489665 8.06640625 13.1328125 C8.06640625 18.0828125 8.06640625 23.0328125 8.06640625 28.1328125 C11.69640625 28.1328125 15.32640625 28.1328125 19.06640625 28.1328125 C19.06640625 32.4228125 19.06640625 36.7128125 19.06640625 41.1328125 C15.43640625 41.1328125 11.80640625 41.1328125 8.06640625 41.1328125 C8.06640625 46.0828125 8.06640625 51.0328125 8.06640625 56.1328125 C13.01640625 56.1328125 17.96640625 56.1328125 23.06640625 56.1328125 C23.1640625 65.41015625 23.1640625 65.41015625 23.06640625 68.1328125 C21.33517033 69.86404842 18.99606336 69.26301179 16.640625 69.265625 C15.53396484 69.26691406 14.42730469 69.26820313 13.28710938 69.26953125 C12.12115234 69.26566406 10.95519531 69.26179688 9.75390625 69.2578125 C8.59955078 69.26167969 7.44519531 69.26554687 6.25585938 69.26953125 C4.59006836 69.26759766 4.59006836 69.26759766 2.890625 69.265625 C1.87057373 69.26449707 0.85052246 69.26336914 -0.20043945 69.26220703 C-2.6267762 69.14733803 -4.60488658 68.75906159 -6.93359375 68.1328125 C-6.95671986 59.41437247 -6.97451021 50.69594294 -6.98540592 41.97747898 C-6.99063416 37.92955508 -6.99773074 33.88165209 -7.0090332 29.83374023 C-7.01986418 25.93045279 -7.02587103 22.02718551 -7.02847099 18.1238842 C-7.03032486 16.63147603 -7.03394475 15.13906902 -7.03932381 13.64666939 C-7.04653706 11.56333111 -7.04758458 9.48007719 -7.04711914 7.39672852 C-7.04933975 6.20870132 -7.05156036 5.02067413 -7.05384827 3.79664612 C-6.83283353 -1.0991907 -4.32181526 0.00437906 0 0 Z " fill="#F16F0E" transform="translate(394.93359375,191.8671875)"/>
<path d="M0 0 C1.95825873 -0.02694851 3.91662226 -0.04637218 5.875 -0.0625 C6.96554687 -0.07410156 8.05609375 -0.08570313 9.1796875 -0.09765625 C12 0 12 0 14 1 C14.68603516 2.85766602 14.68603516 2.85766602 15.2890625 5.25390625 C15.48709473 6.0229126 15.68512695 6.79191895 15.88916016 7.58422852 C16.1319873 8.56705811 16.37481445 9.5498877 16.625 10.5625 C17.40875 13.676875 18.1925 16.79125 19 20 C20.65 13.73 22.3 7.46 24 1 C28.58489331 0.23585111 32.41464864 -0.09170703 37 0 C38.29465292 3.88395876 37.44092344 5.57824687 36.234375 9.46875 C36.04031067 10.1042981 35.84624634 10.73984619 35.64630127 11.39465332 C35.02236885 13.43238808 34.38664525 15.46620518 33.75 17.5 C33.33640187 18.83828306 32.92363277 20.17682263 32.51171875 21.515625 C32.31027756 22.17009109 32.10883636 22.82455719 31.90129089 23.49885559 C31.30028935 25.45762206 30.7030518 27.41750221 30.10668945 29.37768555 C29.43326549 31.58187514 28.74753834 33.7824193 28.03979492 35.97583008 C25.90550965 42.96105079 25.63876515 49.4129099 25.8125 56.6875 C25.82603516 57.78255859 25.83957031 58.87761719 25.85351562 60.00585938 C25.88843163 62.67111414 25.93746283 65.33527504 26 68 C23.03650719 68.98783094 21.0287337 69.13410525 17.9375 69.125 C16.62072266 69.12886719 16.62072266 69.12886719 15.27734375 69.1328125 C13 69 13 69 11 68 C10.99589111 67.30140869 10.99178223 66.60281738 10.98754883 65.88305664 C10.84841893 52.32957805 10.30403197 40.0361443 5.76318359 27.2265625 C4.23224108 22.76008914 2.94242783 18.22048927 1.625 13.6875 C1.35018799 12.78475342 1.07537598 11.88200684 0.79223633 10.9519043 C0.54368896 10.10539307 0.2951416 9.25888184 0.0390625 8.38671875 C-0.18571777 7.63608154 -0.41049805 6.88544434 -0.64208984 6.11206055 C-1.04072678 3.75966753 -0.7361847 2.24895837 0 0 Z " fill="#EF7115" transform="translate(273,192)"/>
<path d="M0 0 C9.24 0 18.48 0 28 0 C29 1 29 1 29.09765625 3.72265625 C29.06510417 6.81510417 29.03255208 9.90755208 29 13 C24.05 13 19.1 13 14 13 C14 17.95 14 22.9 14 28 C17.63 28 21.26 28 25 28 C25.02686553 29.97909398 25.04633375 31.95828971 25.0625 33.9375 C25.07410156 35.03964844 25.08570313 36.14179688 25.09765625 37.27734375 C25 40 25 40 24 41 C22.31391034 41.07205511 20.62499341 41.08386068 18.9375 41.0625 C18.01839844 41.05347656 17.09929687 41.04445312 16.15234375 41.03515625 C15.44207031 41.02355469 14.73179687 41.01195312 14 41 C14.00523682 41.81267334 14.01047363 42.62534668 14.01586914 43.46264648 C14.03656994 47.12092322 14.04963803 50.77918767 14.0625 54.4375 C14.07087891 55.71689453 14.07925781 56.99628906 14.08789062 58.31445312 C14.09111328 59.52939453 14.09433594 60.74433594 14.09765625 61.99609375 C14.10289307 63.12200928 14.10812988 64.2479248 14.11352539 65.40795898 C14 68 14 68 13 69 C11.189715 69.09879565 9.37547273 69.12971514 7.5625 69.125 C6.07943359 69.12886719 6.07943359 69.12886719 4.56640625 69.1328125 C2 69 2 69 0 68 C0 45.56 0 23.12 0 0 Z " fill="#F16E0F" transform="translate(190,192)"/>
<path d="M0 0 C1.093125 0.00257813 2.18625 0.00515625 3.3125 0.0078125 C4.405625 0.00523437 5.49875 0.00265625 6.625 0 C9.3125 0.1328125 9.3125 0.1328125 10.3125 1.1328125 C10.41193972 3.21356659 10.44049596 5.29773098 10.44189453 7.38085938 C10.44364685 8.03288834 10.44539917 8.6849173 10.44720459 9.35670471 C10.45162204 11.52168403 10.44868551 13.68658229 10.4453125 15.8515625 C10.44598557 17.34989437 10.44695562 18.84822613 10.44821167 20.34655762 C10.4496885 23.49065183 10.44753458 26.63471767 10.44287109 29.77880859 C10.4371738 33.81767789 10.44045289 37.85648074 10.44644356 41.8953476 C10.45004958 44.9904633 10.44891039 48.08556315 10.44631577 51.18067932 C10.44564661 52.67029325 10.44647452 54.1599086 10.44879532 55.64952087 C10.45132253 57.72797485 10.44748033 59.80631981 10.44189453 61.88476562 C10.44109894 63.06977661 10.44030334 64.2547876 10.43948364 65.47570801 C10.3125 68.1328125 10.3125 68.1328125 9.3125 69.1328125 C7.31450428 69.23155066 5.31292842 69.26253049 3.3125 69.2578125 C2.219375 69.26039063 1.12625 69.26296875 0 69.265625 C-2.6875 69.1328125 -2.6875 69.1328125 -3.6875 68.1328125 C-3.78693972 66.05205841 -3.81549596 63.96789402 -3.81689453 61.88476562 C-3.81864685 61.23273666 -3.82039917 60.5807077 -3.82220459 59.90892029 C-3.82662204 57.74394097 -3.82368551 55.57904271 -3.8203125 53.4140625 C-3.82098557 51.91573063 -3.82195562 50.41739887 -3.82321167 48.91906738 C-3.8246885 45.77497317 -3.82253458 42.63090733 -3.81787109 39.48681641 C-3.8121738 35.44794711 -3.81545289 31.40914426 -3.82144356 27.3702774 C-3.82504958 24.2751617 -3.82391039 21.18006185 -3.82131577 18.08494568 C-3.82064661 16.59533175 -3.82147452 15.1057164 -3.82379532 13.61610413 C-3.82632253 11.53765015 -3.82248033 9.45930519 -3.81689453 7.38085938 C-3.81609894 6.19584839 -3.81530334 5.0108374 -3.81448364 3.78991699 C-3.64278777 0.19721909 -3.59545521 0.17768238 0 0 Z " fill="#F36F0D" transform="translate(223.6875,191.8671875)"/>
<path d="M0 0 C1.32644531 0.02513672 1.32644531 0.02513672 2.6796875 0.05078125 C8.0983201 0.37889914 12.26859246 1.9302524 16 6 C18.8537234 10.60171174 19.33955427 14.00241595 19.1875 19.375 C19.14689453 21.24285156 19.14689453 21.24285156 19.10546875 23.1484375 C19.07066406 24.08945313 19.03585937 25.03046875 19 26 C18.34 25.67 17.68 25.34 17 25 C16.57465411 22.35931095 16.24961597 19.78294787 16 17.125 C15.51628876 11.26472185 15.51628876 11.26472185 13 6 C4.88654936 2.99722952 4.88654936 2.99722952 -13 3 C-13 23.79 -13 44.58 -13 66 C-10.36 66 -7.72 66 -5 66 C-5.00523682 65.22809326 -5.01047363 64.45618652 -5.01586914 63.66088867 C-5.03663242 60.16976737 -5.04965811 56.67865905 -5.0625 53.1875 C-5.07087891 51.97255859 -5.07925781 50.75761719 -5.08789062 49.50585938 C-5.09111328 48.34248047 -5.09433594 47.17910156 -5.09765625 45.98046875 C-5.10289307 44.90692139 -5.10812988 43.83337402 -5.11352539 42.72729492 C-5 40 -5 40 -4 37 C-2.35 37.33 -0.7 37.66 1 38 C1 40.31 1 42.62 1 45 C3.475 44.505 3.475 44.505 6 44 C6.33 44.66 6.66 45.32 7 46 C6.67 46.66 6.34 47.32 6 48 C5.34 48 4.68 48 4 48 C4.2165625 48.95261719 4.433125 49.90523437 4.65625 50.88671875 C4.9346875 52.14097656 5.213125 53.39523438 5.5 54.6875 C5.7784375 55.92886719 6.056875 57.17023438 6.34375 58.44921875 C7 62 7 62 7 67 C10.63 67 14.26 67 18 67 C17.62746094 65.53046875 17.25492187 64.0609375 16.87109375 62.546875 C16.39274078 60.61470418 15.914903 58.68240576 15.4375 56.75 C15.19064453 55.78191406 14.94378906 54.81382812 14.68945312 53.81640625 C14.34624023 52.41455078 14.34624023 52.41455078 13.99609375 50.984375 C13.78138428 50.12553711 13.5666748 49.26669922 13.34545898 48.38183594 C12.9866035 45.90763516 13.21682797 44.35189657 14 42 C14.81391255 44.58289592 15.62617929 47.16628997 16.4375 49.75 C16.66759766 50.47960937 16.89769531 51.20921875 17.13476562 51.9609375 C17.35712891 52.66992188 17.57949219 53.37890625 17.80859375 54.109375 C18.01282959 54.75874023 18.21706543 55.40810547 18.42749023 56.07714844 C19.75439863 60.53374993 20.0902414 64.30744734 20 69 C17.87506859 69.02693575 15.75004088 69.04636628 13.625 69.0625 C12.44164062 69.07410156 11.25828125 69.08570313 10.0390625 69.09765625 C7 69 7 69 5 68 C4.31396484 65.94628906 4.31396484 65.94628906 3.7109375 63.265625 C3.49179687 62.29882812 3.27265625 61.33203125 3.046875 60.3359375 C2.71429688 58.80839844 2.71429688 58.80839844 2.375 57.25 C2.03082031 55.74566406 2.03082031 55.74566406 1.6796875 54.2109375 C0.67675168 49.70966604 -0.13644675 45.63085672 0 41 C-0.66 41 -1.32 41 -2 41 C-1.67 49.91 -1.34 58.82 -1 68 C-3.74505463 69.37252731 -6.00327412 69.13229255 -9.0625 69.125 C-10.68865234 69.12886719 -10.68865234 69.12886719 -12.34765625 69.1328125 C-15 69 -15 69 -16 68 C-16.09417773 65.91380978 -16.11742878 63.82439523 -16.11352539 61.73608398 C-16.11367142 61.08244873 -16.11381744 60.42881348 -16.1139679 59.75537109 C-16.11326883 57.58557872 -16.10547678 55.41587121 -16.09765625 53.24609375 C-16.09579205 51.74536689 -16.09436816 50.24463943 -16.09336853 48.74391174 C-16.08954352 44.78681774 -16.0797134 40.82976022 -16.06866455 36.87268066 C-16.05845006 32.83765151 -16.05387083 28.80261647 -16.04882812 24.76757812 C-16.03809111 16.84503531 -16.0210149 8.92252219 -16 1 C-11.41197912 -1.29401044 -5.03093226 -0.11409242 0 0 Z " fill="#E6711F" transform="translate(365,192)"/>
<path d="M0 0 C1.20591797 -0.00128906 2.41183594 -0.00257813 3.65429688 -0.00390625 C4.92466797 -0.00003906 6.19503906 0.00382813 7.50390625 0.0078125 C8.77041016 0.00394531 10.03691406 0.00007812 11.34179688 -0.00390625 C12.54900391 -0.00261719 13.75621094 -0.00132812 15 0 C16.11431396 0.00112793 17.22862793 0.00225586 18.37670898 0.00341797 C21.06640625 0.1328125 21.06640625 0.1328125 23.06640625 1.1328125 C23.09327904 2.94523302 23.1127434 4.75776483 23.12890625 6.5703125 C23.14050781 7.57964844 23.15210938 8.58898437 23.1640625 9.62890625 C23.06640625 12.1328125 23.06640625 12.1328125 22.06640625 13.1328125 C17.39795397 13.27707864 12.73774672 13.17489665 8.06640625 13.1328125 C8.06640625 18.0828125 8.06640625 23.0328125 8.06640625 28.1328125 C11.69640625 28.1328125 15.32640625 28.1328125 19.06640625 28.1328125 C19.06640625 32.4228125 19.06640625 36.7128125 19.06640625 41.1328125 C15.43640625 41.1328125 11.80640625 41.1328125 8.06640625 41.1328125 C8.06640625 46.4128125 8.06640625 51.6928125 8.06640625 57.1328125 C7.40640625 56.8028125 6.74640625 56.4728125 6.06640625 56.1328125 C6.06640625 50.8528125 6.06640625 45.5728125 6.06640625 40.1328125 C9.28091894 38.52555615 12.50253161 39.07533065 16.06640625 39.1328125 C16.06640625 36.1628125 16.06640625 33.1928125 16.06640625 30.1328125 C15.01839844 30.15021484 15.01839844 30.15021484 13.94921875 30.16796875 C13.03914063 30.17699219 12.1290625 30.18601563 11.19140625 30.1953125 C9.83402344 30.21271484 9.83402344 30.21271484 8.44921875 30.23046875 C6.06640625 30.1328125 6.06640625 30.1328125 4.06640625 29.1328125 C4.39640625 23.5228125 4.72640625 17.9128125 5.06640625 12.1328125 C8.351601 11.03774758 10.8030404 11.03320642 14.25390625 11.0703125 C15.88392578 11.08384766 15.88392578 11.08384766 17.546875 11.09765625 C18.37832031 11.10925781 19.20976562 11.12085938 20.06640625 11.1328125 C20.06640625 8.4928125 20.06640625 5.8528125 20.06640625 3.1328125 C12.14640625 3.1328125 4.22640625 3.1328125 -3.93359375 3.1328125 C-3.93359375 24.2528125 -3.93359375 45.3728125 -3.93359375 67.1328125 C2.33640625 67.1328125 8.60640625 67.1328125 15.06640625 67.1328125 C15.56140625 68.1228125 15.56140625 68.1228125 16.06640625 69.1328125 C12.98309285 69.16192571 9.899815 69.17964932 6.81640625 69.1953125 C5.94371094 69.20369141 5.07101562 69.21207031 4.171875 69.22070312 C3.32753906 69.22392578 2.48320312 69.22714844 1.61328125 69.23046875 C0.83823242 69.23570557 0.06318359 69.24094238 -0.73535156 69.24633789 C-2.93083659 69.13295489 -4.81513008 68.69342406 -6.93359375 68.1328125 C-6.95671986 59.41437247 -6.97451021 50.69594294 -6.98540592 41.97747898 C-6.99063416 37.92955508 -6.99773074 33.88165209 -7.0090332 29.83374023 C-7.01986418 25.93045279 -7.02587103 22.02718551 -7.02847099 18.1238842 C-7.03032486 16.63147603 -7.03394475 15.13906902 -7.03932381 13.64666939 C-7.04653706 11.56333111 -7.04758458 9.48007719 -7.04711914 7.39672852 C-7.04933975 6.20870132 -7.05156036 5.02067413 -7.05384827 3.79664612 C-6.83283353 -1.0991907 -4.32181526 0.00437906 0 0 Z " fill="#D78D52" transform="translate(394.93359375,191.8671875)"/>
<path d="M0 0 C1.32 0 2.64 0 4 0 C4 0.66 4 1.32 4 2 C5.32 2 6.64 2 8 2 C8.1017192 9.54382769 8.17159975 17.0874774 8.21972656 24.63183594 C8.23979728 27.1963563 8.26706001 29.76083115 8.30175781 32.32519531 C8.35047355 36.01899471 8.37301513 39.71218709 8.390625 43.40625 C8.41127014 44.5461438 8.43191528 45.6860376 8.45318604 46.86047363 C8.45510641 53.72849938 7.61357155 58.12325733 4 64 C2.68 63.34 1.36 62.68 0 62 C0 61.34 0 60.68 0 60 C-0.5775 59.896875 -1.155 59.79375 -1.75 59.6875 C-4.32049158 58.90207202 -5.93657284 57.69495803 -8 56 C-5.69 55.34 -3.38 54.68 -1 54 C-0.67 36.18 -0.34 18.36 0 0 Z " fill="#F36F10" transform="translate(335,194)"/>
<path d="M0 0 C0.72364746 0.00483398 1.44729492 0.00966797 2.19287109 0.01464844 C17.98484874 0.19164886 17.98484874 0.19164886 23.4375 5.125 C26.55866166 10.87455725 26.87936625 15.72000187 26.8359375 22.1875 C26.83880768 23.13761963 26.84167786 24.08773926 26.84463501 25.06665039 C26.84666812 27.06690063 26.8411912 29.06717109 26.82861328 31.06738281 C26.81254906 34.11568992 26.82848786 37.16267126 26.84765625 40.2109375 C26.84567368 42.16146124 26.84182973 44.11198415 26.8359375 46.0625 C26.84504654 47.41903687 26.84504654 47.41903687 26.8543396 48.80297852 C26.79355769 54.31646116 26.09314996 58.25617335 23.4375 63.125 C22.4475 63.62 22.4475 63.62 21.4375 64.125 C21.59826523 63.40637283 21.75903046 62.68774567 21.92466736 61.94734192 C22.4185248 59.22942878 22.59393919 56.72593162 22.64282227 53.9675293 C22.66276749 52.96686935 22.68271271 51.96620941 22.70326233 50.93522644 C22.71997482 49.8673439 22.73668732 48.79946136 22.75390625 47.69921875 C22.77468735 46.59649124 22.79546844 45.49376373 22.81687927 44.35762024 C22.88214932 40.84264222 22.94115495 37.32759088 23 33.8125 C23.04320665 31.42642477 23.08682163 29.04035691 23.13085938 26.65429688 C23.2378076 20.81127494 23.33961555 14.96818042 23.4375 9.125 C22.4475 8.795 21.4575 8.465 20.4375 8.125 C20.1075 7.135 19.7775 6.145 19.4375 5.125 C16.01176063 4.34971521 12.86510755 4.00581222 9.35546875 4.02734375 C8.42412109 4.03056641 7.49277344 4.03378906 6.53320312 4.03710938 C5.57349609 4.04548828 4.61378906 4.05386719 3.625 4.0625 C2.64595703 4.06701172 1.66691406 4.07152344 0.65820312 4.07617188 C-1.74876111 4.08791316 -4.15559857 4.10433581 -6.5625 4.125 C-6.56027939 4.87002274 -6.55805878 5.61504547 -6.55577087 6.38264465 C-6.53573981 13.40130928 -6.52051147 20.41996401 -6.51068783 27.43864918 C-6.50546764 31.04708385 -6.49838564 34.65549492 -6.48706055 38.26391602 C-6.476201 41.74576233 -6.47021664 45.22758592 -6.46762276 48.70944786 C-6.4648739 50.68535995 -6.45706673 52.6612629 -6.44920349 54.63716125 C-6.44912796 55.83817978 -6.44905243 57.0391983 -6.44897461 58.27661133 C-6.446754 59.33584305 -6.44453339 60.39507477 -6.44224548 61.48640442 C-6.5625 64.125 -6.5625 64.125 -7.5625 67.125 C-5.2525 67.125 -2.9425 67.125 -0.5625 67.125 C-0.2325 67.785 0.0975 68.445 0.4375 69.125 C-7.3125 69.25 -7.3125 69.25 -9.5625 68.125 C-9.5625 46.015 -9.5625 23.905 -9.5625 1.125 C-6.51389804 -0.39930098 -3.34160203 -0.02272683 0 0 Z " fill="#BA7238" transform="translate(429.5625,191.875)"/>
<path d="M0 0 C0.66 0 1.32 0 2 0 C2 0.66 2 1.32 2 2 C3.65 2 5.3 2 7 2 C6.01 2.495 6.01 2.495 5 3 C5.33 8.28 5.66 13.56 6 19 C11.28 19 16.56 19 22 19 C22.09765625 28.27734375 22.09765625 28.27734375 22 31 C21 32 21 32 18 32.125 C15 32 15 32 14 31 C12.58672053 30.84379445 11.1664541 30.74943827 9.74609375 30.68359375 C8.46508789 30.62075195 8.46508789 30.62075195 7.15820312 30.55664062 C6.26037109 30.51732422 5.36253906 30.47800781 4.4375 30.4375 C3.08495117 30.37272461 3.08495117 30.37272461 1.70507812 30.30664062 C-0.52975156 30.20022016 -2.76485486 30.09957519 -5 30 C-5 26.7 -5 23.4 -5 20 C-2.69 18.68 -0.38 17.36 2 16 C2 12.04 2 8.08 2 4 C1.34 3.67 0.68 3.34 0 3 C0 2.01 0 1.02 0 0 Z " fill="#F16C0D" transform="translate(396,229)"/>
<path d="M0 0 C3 3 3 3 3.36076355 5.71452332 C3.35410172 6.80928482 3.34743988 7.90404633 3.34057617 9.03198242 C3.34034958 10.27304245 3.34012299 11.51410248 3.33988953 12.79277039 C3.32456968 14.14700684 3.3089217 15.50123961 3.29296875 16.85546875 C3.28737251 18.2412317 3.28310254 19.62700059 3.28010559 21.01277161 C3.26865883 24.65762764 3.23919358 28.30212423 3.20599365 31.94683838 C3.17528885 35.66698342 3.16159941 39.38718661 3.14648438 43.10742188 C3.11432331 50.40511167 3.06312951 57.70250544 3 65 C5.97 65 8.94 65 12 65 C11.83628906 64.23429687 11.67257813 63.46859375 11.50390625 62.6796875 C10.83701669 57.80984281 10.89427153 53.03309368 10.9375 48.125 C10.94201172 47.15046875 10.94652344 46.1759375 10.95117188 45.171875 C10.96289076 42.78122332 10.98082404 40.3906035 11 38 C15.62 38 20.24 38 25 38 C24.67 38.66 24.34 39.32 24 40 C20.7 40 17.4 40 14 40 C14.00523682 40.81267334 14.01047363 41.62534668 14.01586914 42.46264648 C14.03656994 46.12092322 14.04963803 49.77918767 14.0625 53.4375 C14.07087891 54.71689453 14.07925781 55.99628906 14.08789062 57.31445312 C14.09111328 58.52939453 14.09433594 59.74433594 14.09765625 60.99609375 C14.10289307 62.12200928 14.10812988 63.2479248 14.11352539 64.40795898 C14 67 14 67 13 68 C11.189715 68.09879565 9.37547273 68.12971514 7.5625 68.125 C6.07943359 68.12886719 6.07943359 68.12886719 4.56640625 68.1328125 C2 68 2 68 0 67 C0 44.89 0 22.78 0 0 Z " fill="#E88A44" transform="translate(190,193)"/>
<path d="M0 0 C0 18.15 0 36.3 0 55 C-0.66 55 -1.32 55 -2 55 C-2.74068752 51.66292744 -3.14087595 48.53357455 -3.20532227 45.11791992 C-3.22526749 44.17732224 -3.24521271 43.23672455 -3.26576233 42.2676239 C-3.28247482 41.2653627 -3.29918732 40.2631015 -3.31640625 39.23046875 C-3.33718735 38.19432938 -3.35796844 37.15819 -3.37937927 36.09065247 C-3.4446213 32.78966735 -3.50364179 29.48860451 -3.5625 26.1875 C-3.60570932 23.94595559 -3.64932438 21.70441897 -3.69335938 19.46289062 C-3.80027667 13.97534193 -3.90208962 8.48771639 -4 3 C-6.64 2.67 -9.28 2.34 -12 2 C-12 20.48 -12 38.96 -12 58 C-12.33 58 -12.66 58 -13 58 C-13.02505615 57.26885986 -13.0501123 56.53771973 -13.07592773 55.78442383 C-13.19222641 52.46028583 -13.31479928 49.13640759 -13.4375 45.8125 C-13.47681641 44.66201172 -13.51613281 43.51152344 -13.55664062 42.32617188 C-13.59853516 41.21435547 -13.64042969 40.10253906 -13.68359375 38.95703125 C-13.72025146 37.93585205 -13.75690918 36.91467285 -13.79467773 35.86254883 C-13.98867424 33.1579007 -14.4491968 30.65024149 -15 28 C-15.34915526 18.62415442 -14.9894215 9.3288313 -14 0 C-12.41773035 -0.19627391 -10.83410729 -0.38165538 -9.25 -0.5625 C-8.36828125 -0.66691406 -7.4865625 -0.77132812 -6.578125 -0.87890625 C-4 -1 -4 -1 0 0 Z " fill="#D2884A" transform="translate(326,193)"/>
<path d="M0 0 C1.81242052 -0.02687279 3.62495233 -0.04633715 5.4375 -0.0625 C6.44683594 -0.07410156 7.45617187 -0.08570313 8.49609375 -0.09765625 C11 0 11 0 12 1 C12.10402328 2.68653518 12.13853162 4.37741194 12.14526367 6.06713867 C12.15164352 7.14883835 12.15802338 8.23053802 12.16459656 9.34501648 C12.16570938 10.52409073 12.1668222 11.70316498 12.16796875 12.91796875 C12.17296135 14.72567497 12.17296135 14.72567497 12.17805481 16.56990051 C12.18313079 19.12805804 12.18546293 21.68622221 12.18530273 24.24438477 C12.18748093 28.15326961 12.2056069 32.06186859 12.22460938 35.97070312 C12.22754483 38.45312403 12.22952861 40.93554628 12.23046875 43.41796875 C12.23765427 44.58692184 12.24483978 45.75587494 12.25224304 46.96025085 C12.2334586 53.66082571 11.91304811 58.83611274 8.375 64.6875 C4.58439644 68.37835083 0.77759755 69.93141734 -4.53125 70.0625 C-10.56463081 69.62635199 -15.59799941 68.40200059 -20 64 C-19.67 63.01 -19.34 62.02 -19 61 C-18.443125 61.9590625 -18.443125 61.9590625 -17.875 62.9375 C-15.35512768 65.70935955 -13.68504781 65.5774827 -10 66 C-7.75137086 66.08889929 -5.5003798 66.13018521 -3.25 66.125 C-1.55617188 66.12886719 -1.55617188 66.12886719 0.171875 66.1328125 C2.95021112 66.19354612 2.95021112 66.19354612 5 65 C8.6104707 58.69592449 8.47189997 52.63931281 8.51171875 45.50390625 C8.52966995 44.31522446 8.54762115 43.12654266 8.56611633 41.90184021 C8.6201027 38.12209573 8.65407867 34.34247672 8.6875 30.5625 C8.72068325 27.99282113 8.75517384 25.42315879 8.79101562 22.85351562 C8.87582269 16.56912294 8.94422206 10.28471379 9 4 C7.68 4 6.36 4 5 4 C5 3.34 5 2.68 5 2 C2.525 1.505 2.525 1.505 0 1 C0 0.67 0 0.34 0 0 Z " fill="#EC8C48" transform="translate(334,192)"/>
<path d="M0 0 C2.35108558 3.70821628 2.43155058 7.48605238 2.625 11.75 C2.66367188 12.44738281 2.70234375 13.14476562 2.7421875 13.86328125 C2.83598624 15.57510818 2.91906174 17.28751682 3 19 C3.67546875 19.23074219 4.3509375 19.46148437 5.046875 19.69921875 C14.40448109 23.12042444 14.40448109 23.12042444 17 28 C18.23603446 31.62023362 19.15305623 35.27144279 20 39 C20.20753906 39.8765625 20.41507813 40.753125 20.62890625 41.65625 C23.4731337 54.54477717 23.4731337 54.54477717 20.5 59.5 C20.005 59.995 19.51 60.49 19 61 C18.01 60.505 18.01 60.505 17 60 C17.66 59.01 18.32 58.02 19 57 C19.45772063 54.26127045 19.45772063 54.26127045 19.625 51.3125 C19.69976562 50.31863281 19.77453125 49.32476562 19.8515625 48.30078125 C19.90054688 47.54152344 19.94953125 46.78226562 20 46 C19.34 46 18.68 46 18 46 C17 41 16 36 15 31 C13.68 31.33 12.36 31.66 11 32 C10.979375 32.9075 10.95875 33.815 10.9375 34.75 C10 38 10 38 6.8125 40.25 C5.55427312 40.8600494 4.28345664 41.44499172 3 42 C2.0925 42.4125 1.185 42.825 0.25 43.25 C-4.49697425 44.3454556 -9.15061329 44.15531844 -14 44 C-13.67 43.34 -13.34 42.68 -13 42 C-9.70847685 41.07191071 -6.41715238 40.31755218 -3.078125 39.58789062 C1.11802287 38.61984548 4.39878053 37.48824416 8 35 C7.67 33.02 7.34 31.04 7 29 C8.65 29 10.3 29 12 29 C11.67 28.01 11.34 27.02 11 26 C10.34 25.67 9.68 25.34 9 25 C9 24.34 9 23.68 9 23 C8.2575 22.87625 7.515 22.7525 6.75 22.625 C4.17069951 22.03879534 2.2517838 21.36715445 0 20 C-1.4718061 17.05638781 -1.13180773 14.39951798 -1.125 11.125 C-1.12886719 9.27261719 -1.12886719 9.27261719 -1.1328125 7.3828125 C-1.02717861 4.69225511 -0.80529454 2.54370816 0 0 Z " fill="#D97836" transform="translate(164,217)"/>
<path d="M0 0 C1.85772162 0.08984301 3.71247985 0.24611861 5.5625 0.4375 C7.08037109 0.59025391 7.08037109 0.59025391 8.62890625 0.74609375 C9.80259766 0.87177734 9.80259766 0.87177734 11 1 C11 1.33 11 1.66 11 2 C7.7 2 4.4 2 1 2 C1 23.45 1 44.9 1 67 C5.95 66.505 5.95 66.505 11 66 C11 46.86 11 27.72 11 8 C11.33 8 11.66 8 12 8 C12 28.13 12 48.26 12 69 C8.04 69 4.08 69 0 69 C-1.83683222 67.16316778 -1.12774193 64.21344528 -1.12939453 61.75195312 C-1.13114685 61.09992416 -1.13289917 60.4478952 -1.13470459 59.77610779 C-1.13912204 57.61112847 -1.13618551 55.44623021 -1.1328125 53.28125 C-1.13348557 51.78291813 -1.13445562 50.28458637 -1.13571167 48.78625488 C-1.1371885 45.64216067 -1.13503458 42.49809483 -1.13037109 39.35400391 C-1.1246738 35.31513461 -1.12795289 31.27633176 -1.13394356 27.2374649 C-1.13754958 24.1423492 -1.13641039 21.04724935 -1.13381577 17.95213318 C-1.13314661 16.46251925 -1.13397452 14.9729039 -1.13629532 13.48329163 C-1.13882253 11.40483765 -1.13498033 9.32649269 -1.12939453 7.24804688 C-1.12859894 6.06303589 -1.12780334 4.8780249 -1.12698364 3.65710449 C-1 1 -1 1 0 0 Z " fill="#DF733C" transform="translate(221,192)"/>
<path d="M0 0 C4.11062043 0.23715118 6.33060981 0.36584087 9.375 3.25 C10.96606467 5.94257098 11.64740907 7.91482939 12 11 C12.66 11 13.32 11 14 11 C14 14.96 14 18.92 14 23 C10.04 22.67 6.08 22.34 2 22 C1.9175 20.288125 1.835 18.57625 1.75 16.8125 C1.3394029 12.05692766 0.59906731 9.36686942 -3 6 C-2.01 6 -1.02 6 0 6 C0 4.02 0 2.04 0 0 Z " fill="#EE6D12" transform="translate(258,195)"/>
<path d="M0 0 C0.66 0 1.32 0 2 0 C1.52785122 4.31329901 1.04611289 8.62547253 0.5625 12.9375 C0.42779297 14.16919922 0.29308594 15.40089844 0.15429688 16.66992188 C0.02216797 17.83974609 -0.10996094 19.00957031 -0.24609375 20.21484375 C-0.36654053 21.29886475 -0.4869873 22.38288574 -0.61108398 23.49975586 C-1 26 -1 26 -2 27 C-2.397493 29.34723966 -2.74368723 31.70328548 -3.0625 34.0625 C-3.23910156 35.35285156 -3.41570312 36.64320313 -3.59765625 37.97265625 C-3.73042969 38.97167969 -3.86320312 39.97070312 -4 41 C-4.66 41 -5.32 41 -6 41 C-6.761788 48.32613141 -7.40711812 55.65835626 -8 63 C-8.66 63 -9.32 63 -10 63 C-9.90460938 63.91523438 -9.80921875 64.83046875 -9.7109375 65.7734375 C-9.60007812 66.96195312 -9.48921875 68.15046875 -9.375 69.375 C-9.25898437 70.55835938 -9.14296875 71.74171875 -9.0234375 72.9609375 C-9.01570313 73.96382813 -9.00796875 74.96671875 -9 76 C-11 78 -11 78 -14.625 78.125 C-15.73875 78.08375 -16.8525 78.0425 -18 78 C-17.67 77.01 -17.34 76.02 -17 75 C-15.68 75 -14.36 75 -13 75 C-12.90203125 74.10023438 -12.8040625 73.20046875 -12.703125 72.2734375 C-11.76265644 64.1821649 -10.50154805 56.2444151 -8.9375 48.25 C-7.33059746 39.96119391 -6.48668654 31.874826 -6.32788086 23.43261719 C-6.2276461 19.11937597 -5.81843357 15.98222856 -4 12 C-3.63179131 9.8293789 -3.63179131 9.8293789 -3.5 7.75 C-3.335 6.5125 -3.17 5.275 -3 4 C-2.34 3.67 -1.68 3.34 -1 3 C-0.67 2.01 -0.34 1.02 0 0 Z M-2 9 C-1 12 -1 12 -1 12 Z M-3 13 C-2 17 -2 17 -2 17 Z M-4 18 C-4 19.65 -4 21.3 -4 23 C-3.67 23 -3.34 23 -3 23 C-3 21.35 -3 19.7 -3 18 C-3.33 18 -3.66 18 -4 18 Z " fill="#E18547" transform="translate(101,162)"/>
<path d="M0 0 C1.69141656 0.08963062 3.37959602 0.24577676 5.0625 0.4375 C6.44115234 0.59025391 6.44115234 0.59025391 7.84765625 0.74609375 C8.55792969 0.82988281 9.26820313 0.91367188 10 1 C10.78641837 3.79037933 11.1334177 6.29013248 11.16113281 9.18603516 C11.17074036 10.00012848 11.1803479 10.8142218 11.19024658 11.65298462 C11.19449646 12.52289032 11.19874634 13.39279602 11.203125 14.2890625 C11.20882507 15.1886972 11.21452515 16.08833191 11.22039795 17.01522827 C11.22982849 18.91313506 11.23637419 20.81105808 11.24023438 22.70898438 C11.24998787 25.62137906 11.2810483 28.53308191 11.3125 31.4453125 C11.31902568 33.28905831 11.32427786 35.13280916 11.328125 36.9765625 C11.3404718 37.85051666 11.3528186 38.72447083 11.36553955 39.62490845 C11.35644531 42.07275391 11.35644531 42.07275391 11 46 C7.53001271 48.31332486 6.07490752 48.33957563 2 48 C1.01 47.34 0.02 46.68 -1 46 C-1.36749268 44.05784607 -1.36749268 44.05784607 -1.35644531 41.65795898 C-1.35944641 40.7604039 -1.36244751 39.86284882 -1.36553955 38.93809509 C-1.34701935 37.48180443 -1.34701935 37.48180443 -1.328125 35.99609375 C-1.32625183 35.0024733 -1.32437866 34.00885284 -1.32244873 32.98512268 C-1.31571925 30.88270721 -1.30178711 28.78030445 -1.28125 26.67797852 C-1.25009461 23.44731104 -1.24028095 20.21713091 -1.234375 16.98632812 C-1.22520552 14.94791067 -1.21482993 12.90949822 -1.203125 10.87109375 C-1.19887512 9.89820908 -1.19462524 8.9253244 -1.19024658 7.92295837 C-1.18063904 7.02855545 -1.17103149 6.13415253 -1.16113281 5.21264648 C-1.15430481 4.42147934 -1.14747681 3.63031219 -1.14044189 2.81517029 C-1 1 -1 1 0 0 Z M1 2 C1 16.19 1 30.38 1 45 C2.98 45 4.96 45 7 45 C9.60672701 42.39327299 9.23776223 40.58072352 9.25224304 37.03100586 C9.24505753 36.21639893 9.23787201 35.40179199 9.23046875 34.5625 C9.23001053 33.72662354 9.22955231 32.89074707 9.2290802 32.02954102 C9.22605692 30.26089052 9.21816835 28.49224272 9.20581055 26.72363281 C9.18757376 24.01097212 9.18530071 21.29865304 9.18554688 18.5859375 C9.18063095 16.8697887 9.1748023 15.15364223 9.16796875 13.4375 C9.16685593 12.62289307 9.1657431 11.80828613 9.16459656 10.96899414 C9.23172344 6.85213992 9.23172344 6.85213992 8 3 C5.69 2.67 3.38 2.34 1 2 Z " fill="#D9712F" transform="translate(433,203)"/>
<path d="M0 0 C0.33 1.32 0.66 2.64 1 4 C-3.62 4 -8.24 4 -13 4 C-13 8.95 -13 13.9 -13 19 C-9.37 19 -5.74 19 -2 19 C-2 23.29 -2 27.58 -2 32 C-5.63 32 -9.26 32 -13 32 C-13 37.28 -13 42.56 -13 48 C-13.66 47.67 -14.32 47.34 -15 47 C-15 41.72 -15 36.44 -15 31 C-11.78548731 29.39274365 -8.56387464 29.94251815 -5 30 C-5 27.03 -5 24.06 -5 21 C-6.04800781 21.01740234 -6.04800781 21.01740234 -7.1171875 21.03515625 C-8.02726562 21.04417969 -8.93734375 21.05320313 -9.875 21.0625 C-11.23238281 21.07990234 -11.23238281 21.07990234 -12.6171875 21.09765625 C-15 21 -15 21 -17 20 C-16.67 14.39 -16.34 8.78 -16 3 C-12.57767028 1.85922343 -9.91326783 1.90184883 -6.3125 1.9375 C-4.54326172 1.95103516 -4.54326172 1.95103516 -2.73828125 1.96484375 C-1.83464844 1.97644531 -0.93101562 1.98804688 0 2 C0 1.34 0 0.68 0 0 Z " fill="#EC9E60" transform="translate(416,201)"/>
<path d="M0 0 C2.3125 -0.3125 2.3125 -0.3125 5 0 C6.6875 2.4375 6.6875 2.4375 8 5 C8.66 5.33 9.32 5.66 10 6 C10 6.66 10 7.32 10 8 C11.32 8 12.64 8 14 8 C14 8.66 14 9.32 14 10 C15.299375 9.979375 16.59875 9.95875 17.9375 9.9375 C19.29165633 9.91600546 20.64756083 9.92851801 22 10 C22.33 10.33 22.66 10.66 23 11 C26.10085221 11.16041193 29.18187579 11.25963402 32.28515625 11.31640625 C33.21597519 11.33718735 34.14679413 11.35796844 35.1058197 11.37937927 C38.09130182 11.44497931 41.07687484 11.50380802 44.0625 11.5625 C46.08138976 11.6056753 48.1002702 11.64928925 50.11914062 11.69335938 C55.07933297 11.80067129 60.03961709 11.90190888 65 12 C65 12.33 65 12.66 65 13 C56.58768465 14.92281494 48.60787848 15.28973315 40 15 C38.86433594 14.97035156 37.72867188 14.94070313 36.55859375 14.91015625 C25.0572397 14.37368809 11.85688102 12.97119292 3 5 C3.9977758 7.99332739 4.7522025 8.94766315 7 11 C4.69 10.34 2.38 9.68 0 9 C-1.10844919 5.67465243 -0.84454356 3.37817425 0 0 Z " fill="#E98E4E" transform="translate(81,245)"/>
<path d="M0 0 C0.66 0 1.32 0 2 0 C22.85472511 39.94983278 22.85472511 39.94983278 18.79296875 54.94140625 C17.63902449 57.93711376 16.4045329 59.86263742 14 62 C10.75 63.3125 10.75 63.3125 8 64 C8 63.34 8 62.68 8 62 C8.61875 61.9175 9.2375 61.835 9.875 61.75 C12.11007943 61.20354948 12.11007943 61.20354948 13.09375 59.3203125 C14.18203391 56.53393041 14.42010161 54.10740988 14.625 51.125 C14.69976562 50.11695313 14.77453125 49.10890625 14.8515625 48.0703125 C15.13972564 42.10988543 15.04094464 38.89378707 12.1328125 33.5859375 C10.66716607 30.24022048 9.920217 26.79875458 9.125 23.25 C7.64979627 16.77134031 5.46648364 11.22329275 2.26953125 5.35546875 C1 3 1 3 0 0 Z " fill="#E38543" transform="translate(163,132)"/>
<path d="M0 0 C0.66 0 1.32 0 2 0 C2 21.78 2 43.56 2 66 C5.63 66 9.26 66 13 66 C13.33 65.01 13.66 64.02 14 63 C14.33 64.32 14.66 65.64 15 67 C12.25494537 68.37252731 9.99672588 68.13229255 6.9375 68.125 C5.31134766 68.12886719 5.31134766 68.12886719 3.65234375 68.1328125 C1 68 1 68 0 67 C-0.09417773 64.91380978 -0.11742878 62.82439523 -0.11352539 60.73608398 C-0.11367142 60.08244873 -0.11381744 59.42881348 -0.1139679 58.75537109 C-0.11326883 56.58557872 -0.10547678 54.41587121 -0.09765625 52.24609375 C-0.09579205 50.74536689 -0.09436816 49.24463943 -0.09336853 47.74391174 C-0.08954352 43.78681774 -0.0797134 39.82976022 -0.06866455 35.87268066 C-0.05845006 31.83765151 -0.05387083 27.80261647 -0.04882812 23.76757812 C-0.03809111 15.84503531 -0.0210149 7.92252219 0 0 Z " fill="#D3804C" transform="translate(349,193)"/>
<path d="M0 0 C1 1 1 1 1.12025452 3.66383362 C1.1169236 5.4458744 1.1169236 5.4458744 1.11352539 7.26391602 C1.11367142 7.91755127 1.11381744 8.57118652 1.1139679 9.24462891 C1.11326883 11.41442128 1.10547678 13.58412879 1.09765625 15.75390625 C1.09579205 17.25463311 1.09436816 18.75536057 1.09336853 20.25608826 C1.08954352 24.21318226 1.0797134 28.17023978 1.06866455 32.12731934 C1.05845006 36.16234849 1.05387083 40.19738353 1.04882812 44.23242188 C1.03809111 52.15496469 1.0210149 60.07747781 1 68 C0.67 68 0.34 68 0 68 C-0.33 46.55 -0.66 25.1 -1 3 C-3.97 3 -6.94 3 -10 3 C-10 23.79 -10 44.58 -10 66 C-9.01 66.33 -8.02 66.66 -7 67 C-8.32 67 -9.64 67 -11 67 C-11 45.55 -11 24.1 -11 2 C-6.77484052 -0.11257974 -4.61982692 -0.26149964 0 0 Z " fill="#C4591B" transform="translate(233,192)"/>
<path d="M0 0 C2.58396679 -0.08112454 5.16537568 -0.14054748 7.75 -0.1875 C8.47960937 -0.21263672 9.20921875 -0.23777344 9.9609375 -0.26367188 C15.61370672 -0.34075509 15.61370672 -0.34075509 17.68994141 1.49072266 C21.24087261 3.81072442 24.69688949 3.44082383 28.8515625 3.44140625 C30.13442642 3.46121803 30.13442642 3.46121803 31.44320679 3.48143005 C34.17050474 3.52228303 36.89746542 3.54399276 39.625 3.5625 C42.359574 3.58626429 45.0938293 3.61432218 47.82821655 3.65428162 C49.52864462 3.67869443 51.22924243 3.69350756 52.92984009 3.69789124 C58.77545189 3.77545189 58.77545189 3.77545189 61 6 C14.95604783 6.87128294 14.95604783 6.87128294 1 2 C0.67 1.34 0.34 0.68 0 0 Z " fill="#E59A5E" transform="translate(84,283)"/>
<path d="M0 0 C1 3 1 3 0.22265625 4.9375 C-0.35162109 5.9584375 -0.35162109 5.9584375 -0.9375 7 C-2.46769739 9.73879397 -3 10.77775564 -3 14 C-3.66 14 -4.32 14 -5 14 C-5.10957031 14.56847656 -5.21914062 15.13695312 -5.33203125 15.72265625 C-6.37938166 20.82316758 -7.79271753 25.284442 -10 30 C-10.66 30 -11.32 30 -12 30 C-12.66 32.97 -13.32 35.94 -14 39 C-14.66 39 -15.32 39 -16 39 C-16 41.64 -16 44.28 -16 47 C-16.99 46.67 -17.98 46.34 -19 46 C-8.66032934 9.71646707 -8.66032934 9.71646707 0 0 Z " fill="#DF701E" transform="translate(89,132)"/>
<path d="M0 0 C0.99 0.33 1.98 0.66 3 1 C2.67 18.82 2.34 36.64 2 55 C0.35 55.66 -1.3 56.32 -3 57 C-3.66 56.34 -4.32 55.68 -5 55 C-3.68 55 -2.36 55 -1 55 C-0.67 36.85 -0.34 18.7 0 0 Z " fill="#B5662F" transform="translate(333,193)"/>
<path d="M0 0 C0 0.66 0 1.32 0 2 C-0.78375 2.268125 -1.5675 2.53625 -2.375 2.8125 C-5.28114923 3.84814432 -5.28114923 3.84814432 -7 7 C-7.41964487 9.44223899 -7.41964487 9.44223899 -7.5625 12.0625 C-7.90394511 16.80789022 -7.90394511 16.80789022 -9 19 C-9.08308638 20.37548156 -9.10736016 21.75485796 -9.09765625 23.1328125 C-9.09443359 23.93847656 -9.09121094 24.74414062 -9.08789062 25.57421875 C-9.07951172 26.41597656 -9.07113281 27.25773437 -9.0625 28.125 C-9.05573242 29.39923828 -9.05573242 29.39923828 -9.04882812 30.69921875 C-9.03702874 32.79950909 -9.01909306 34.8997633 -9 37 C-6.69 37.99 -4.38 38.98 -2 40 C-2 40.66 -2 41.32 -2 42 C-1.34 42.33 -0.68 42.66 0 43 C-5.27045771 43 -7.98904071 40.98315801 -11.6953125 37.328125 C-13.53864966 34.03881678 -13.15976513 31.12637282 -12.8125 27.5 C-12.75425049 26.79383545 -12.69600098 26.0876709 -12.63598633 25.36010742 C-12.44862518 23.236761 -12.2309089 21.11901768 -12 19 C-11.87367187 17.83082031 -11.74734375 16.66164062 -11.6171875 15.45703125 C-10.29634919 5.79089634 -10.29634919 5.79089634 -6 2 C-3.77661117 0.62673043 -2.60417425 0 0 0 Z " fill="#CD773A" transform="translate(82,239)"/>
<path d="M0 0 C2.3125 -0.25 2.3125 -0.25 5 0 C7.26523786 2.26523786 7.95684847 3.58804669 8.29296875 6.796875 C8.1953125 9.53125 8.09765625 12.265625 8 15 C11.63 15 15.26 15 19 15 C19 15.33 19 15.66 19 16 C14.71 16 10.42 16 6 16 C5.67 11.71 5.34 7.42 5 3 C3.68 3 2.36 3 1 3 C-0.68932442 6.37864884 -0.36896964 10.22145734 -0.53515625 13.9453125 C-0.57813339 14.8303244 -0.62111053 15.7153363 -0.66539001 16.62716675 C-0.80196541 19.45959511 -0.93230098 22.29227206 -1.0625 25.125 C-1.15388669 27.04298834 -1.2456784 28.96095742 -1.33789062 30.87890625 C-1.56329754 35.58572681 -1.78310796 40.29277969 -2 45 C-2.33 45 -2.66 45 -3 45 C-3 30.81 -3 16.62 -3 2 C-2.01 2 -1.02 2 0 2 C0 1.34 0 0.68 0 0 Z " fill="#DE7F3B" transform="translate(252,202)"/>
<path d="M0 0 C0.99 0.33 1.98 0.66 3 1 C0.7951951 10.43546943 -1.74391629 19.72957766 -4.5625 29 C-4.85519775 29.96623291 -5.14789551 30.93246582 -5.44946289 31.92797852 C-7.11997814 37.36573852 -8.94237283 42.69645035 -11 48 C-11.33 48 -11.66 48 -12 48 C-12.38164441 43.92912626 -11.31273186 41.01716239 -9.80078125 37.26953125 C-8.39613408 33.28855562 -7.72288087 29.15018664 -7 25 C-6.34 25 -5.68 25 -5 25 C-5 21.7 -5 18.4 -5 15 C-4.34 15 -3.68 15 -3 15 C-3.33 13.02 -3.66 11.04 -4 9 C-3.34 9 -2.68 9 -2 9 C-1.855625 7.88625 -1.71125 6.7725 -1.5625 5.625 C-1 2 -1 2 0 0 Z " fill="#DD8B55" transform="translate(308,192)"/>
<path d="M0 0 C6.27 0 12.54 0 19 0 C19 0.66 19 1.32 19 2 C13.72 1.67 8.44 1.34 3 1 C3 3.97 3 6.94 3 10 C4.32 10 5.64 10 7 10 C7.08071788 12.79224073 7.14035408 15.58216566 7.1875 18.375 C7.21263672 19.1690625 7.23777344 19.963125 7.26367188 20.78125 C7.29004405 22.85586148 7.15486462 24.93100865 7 27 C4 29 4 29 0.8125 28.625 C-0.115625 28.41875 -1.04375 28.2125 -2 28 C-1.67 27.34 -1.34 26.68 -1 26 C0.98 26.33 2.96 26.66 5 27 C5 22.38 5 17.76 5 13 C3.35 12.67 1.7 12.34 0 12 C0 8.04 0 4.08 0 0 Z " fill="#D77D43" transform="translate(253,222)"/>
<path d="M0 0 C3.96930989 -0.02465881 7.93859034 -0.04284023 11.90795898 -0.05493164 C13.25920386 -0.05997057 14.61044326 -0.06680177 15.96166992 -0.07543945 C17.90020434 -0.08752419 19.838778 -0.09269828 21.77734375 -0.09765625 C23.52905884 -0.10551147 23.52905884 -0.10551147 25.31616211 -0.11352539 C28 0 28 0 29 1 C29.07244053 3.01964199 29.08377188 5.04167124 29.0625 7.0625 C29.05347656 8.16722656 29.04445312 9.27195313 29.03515625 10.41015625 C29.02355469 11.26480469 29.01195312 12.11945313 29 13 C28.67 12.34 28.34 11.68 28 11 C23.05 11.33 18.1 11.66 13 12 C13 11.34 13 10.68 13 10 C16.96 10 20.92 10 25 10 C25 7.69 25 5.38 25 3 C17.41 3.33 9.82 3.66 2 4 C1.34 2.68 0.68 1.36 0 0 Z " fill="#E76F25" transform="translate(190,192)"/>
<path d="M0 0 C0.33 0 0.66 0 1 0 C1.99 3.63 2.98 7.26 4 11 C5.32 11.33 6.64 11.66 8 12 C8.99 13.485 8.99 13.485 10 15 C12.6556728 15.58348752 12.6556728 15.58348752 15.625 15.6875 C16.62789062 15.75324219 17.63078125 15.81898438 18.6640625 15.88671875 C19.43492187 15.92410156 20.20578125 15.96148437 21 16 C21 15.01 21 14.02 21 13 C22.65 13 24.3 13 26 13 C26 13.99 26 14.98 26 16 C28.64 16 31.28 16 34 16 C33.67 16.66 33.34 17.32 33 18 C26.375 18.25 26.375 18.25 23 16 C22.360625 16.515625 21.72125 17.03125 21.0625 17.5625 C16.78558409 19.57003196 13.5128668 19.1700025 9 18 C4.64554577 15.74213484 1.83864323 13.59660807 0 9 C-0.22869139 5.98127368 -0.17766109 3.02023846 0 0 Z " fill="#E4925A" transform="translate(238,243)"/>
<path d="M0 0 C0.66 0 1.32 0 2 0 C2 0.66 2 1.32 2 2 C2.99 2.33 3.98 2.66 5 3 C5.33 5.97 5.66 8.94 6 12 C6.66 12 7.32 12 8 12 C7.67 12.99 7.34 13.98 7 15 C6.01 14.67 5.02 14.34 4 14 C4.16757813 15.18078125 4.33515625 16.3615625 4.5078125 17.578125 C4.7141892 19.13533099 4.91988266 20.69262763 5.125 22.25 C5.23714844 23.02730469 5.34929687 23.80460937 5.46484375 24.60546875 C6.37751589 31.72431144 6.37751589 31.72431144 4 35 C2.39995498 31.29989588 1.90210675 28.2207948 2 24.25 C2.18072121 16.1062505 0.9939824 8.06723216 0 0 Z " fill="#DE7B37" transform="translate(159,181)"/>
<path d="M0 0 C1.4540625 0.0309375 1.4540625 0.0309375 2.9375 0.0625 C2.6075 0.7225 2.2775 1.3825 1.9375 2.0625 C0.6175 2.0625 -0.7025 2.0625 -2.0625 2.0625 C-2.0625 16.9125 -2.0625 31.7625 -2.0625 47.0625 C-2.7225 46.7325 -3.3825 46.4025 -4.0625 46.0625 C-4.08777062 39.67212769 -4.10533317 33.28176817 -4.11743164 26.89135742 C-4.12247308 24.71557127 -4.12930607 22.53978853 -4.13793945 20.36401367 C-4.15001338 17.24396933 -4.15573005 14.12396962 -4.16015625 11.00390625 C-4.16531754 10.02474747 -4.17047882 9.04558868 -4.17579651 8.03675842 C-4.17587204 7.13590012 -4.17594757 6.23504181 -4.17602539 5.30688477 C-4.178246 4.50968521 -4.18046661 3.71248566 -4.18275452 2.89112854 C-3.97344996 -0.29162326 -3.2401947 0.06612642 0 0 Z " fill="#E3712C" transform="translate(436.0625,202.9375)"/>
<path d="M0 0 C3.34450539 1.68318245 5.26852505 3.33202671 6.47265625 6.9375 C6.98045765 8.90957803 7.39359645 10.90548227 7.79296875 12.90234375 C7.13296875 12.90234375 6.47296875 12.90234375 5.79296875 12.90234375 C2.79296875 6.90234375 2.79296875 6.90234375 2.04296875 4.58984375 C0.8313341 2.58290091 0.8313341 2.58290091 -2.14453125 2.15234375 C-3.49674744 2.04178519 -4.85163853 1.96252993 -6.20703125 1.90234375 C-7.10808594 1.83917969 -8.00914062 1.77601563 -8.9375 1.7109375 C-13.3162732 1.52774996 -16.30221102 1.41223279 -20.20703125 3.52734375 C-22.42486978 6.161027 -23.84469138 8.74745141 -25.20703125 11.90234375 C-25.53703125 10.91234375 -25.86703125 9.92234375 -26.20703125 8.90234375 C-20.59101757 -1.65576197 -10.72701387 -4.50244102 0 0 Z " fill="#E0874A" transform="translate(264.20703125,193.09765625)"/>
<path d="M0 0 C0.66 0 1.32 0 2 0 C1.5566317 4.31417789 1.09281982 8.62591056 0.625 12.9375 C0.49867187 14.16919922 0.37234375 15.40089844 0.2421875 16.66992188 C0.11328125 17.83974609 -0.015625 19.00957031 -0.1484375 20.21484375 C-0.26364746 21.29886475 -0.37885742 22.38288574 -0.49755859 23.49975586 C-0.66336426 24.32483643 -0.82916992 25.14991699 -1 26 C-1.66 26.33 -2.32 26.66 -3 27 C-3.33 24.69 -3.66 22.38 -4 20 C-4.04898438 20.75925781 -4.09796875 21.51851562 -4.1484375 22.30078125 C-4.22320312 23.29464844 -4.29796875 24.28851563 -4.375 25.3125 C-4.47941406 26.79169922 -4.47941406 26.79169922 -4.5859375 28.30078125 C-5 31 -5 31 -7 34 C-6.88562349 31.27001324 -6.75888594 28.5415418 -6.625 25.8125 C-6.5940625 25.04357422 -6.563125 24.27464844 -6.53125 23.48242188 C-6.3111565 19.20893977 -5.76851912 15.94783599 -4 12 C-3.63179131 9.8293789 -3.63179131 9.8293789 -3.5 7.75 C-3.335 6.5125 -3.17 5.275 -3 4 C-2.34 3.67 -1.68 3.34 -1 3 C-0.67 2.01 -0.34 1.02 0 0 Z M-2 9 C-1 12 -1 12 -1 12 Z M-3 13 C-2 17 -2 17 -2 17 Z " fill="#D78044" transform="translate(101,162)"/>
<path d="M0 0 C3.01676175 3.01676175 3.5171573 6.6393655 4.625 10.6875 C4.85445313 11.47833984 5.08390625 12.26917969 5.3203125 13.08398438 C6.65155369 17.8819995 7.2531513 22.02357834 7 27 C4.87506859 27.02693575 2.75004088 27.04636628 0.625 27.0625 C-0.55835938 27.07410156 -1.74171875 27.08570313 -2.9609375 27.09765625 C-6 27 -6 27 -8 26 C-8.59355614 23.35139573 -8.74209269 20.70802678 -9 18 C-7.515 18.99 -7.515 18.99 -6 20 C-6 21.65 -6 23.3 -6 25 C-2.37 25 1.26 25 5 25 C4.6390625 23.53046875 4.278125 22.0609375 3.90625 20.546875 C3.43726123 18.61464127 2.96852435 16.68234639 2.5 14.75 C2.26152344 13.78191406 2.02304687 12.81382812 1.77734375 11.81640625 C1.55175781 10.88183594 1.32617188 9.94726562 1.09375 8.984375 C0.77954102 7.69611816 0.77954102 7.69611816 0.45898438 6.38183594 C0 4 0 4 0 0 Z " fill="#CE8B4A" transform="translate(378,234)"/>
<path d="M0 0 C4.12498538 -0.02892385 8.24994485 -0.04677267 12.375 -0.0625 C14.1384375 -0.07506836 14.1384375 -0.07506836 15.9375 -0.08789062 C17.61972656 -0.09272461 17.61972656 -0.09272461 19.3359375 -0.09765625 C20.89127197 -0.10551147 20.89127197 -0.10551147 22.47802734 -0.11352539 C25 0 25 0 27 1 C27 4.63 27 8.26 27 12 C26.01 11.67 25.02 11.34 24 11 C24 8.36 24 5.72 24 3 C16.08 3 8.16 3 0 3 C0 2.01 0 1.02 0 0 Z " fill="#D06226" transform="translate(391,192)"/>
<path d="M0 0 C1.27230469 0.00902344 2.54460937 0.01804688 3.85546875 0.02734375 C5.31919922 0.04474609 5.31919922 0.04474609 6.8125 0.0625 C6.8125 0.7225 6.8125 1.3825 6.8125 2.0625 C2.1925 2.0625 -2.4275 2.0625 -7.1875 2.0625 C-7.1875 7.0125 -7.1875 11.9625 -7.1875 17.0625 C-4.2175 17.0625 -1.2475 17.0625 1.8125 17.0625 C1.8125 17.3925 1.8125 17.7225 1.8125 18.0625 C-2.1475 18.0625 -6.1075 18.0625 -10.1875 18.0625 C-10.1875 12.4525 -10.1875 6.8425 -10.1875 1.0625 C-6.62704823 -0.12431726 -3.74941663 -0.03439832 0 0 Z " fill="#F29750" transform="translate(211.1875,202.9375)"/>
<path d="M0 0 C0.33 0 0.66 0 1 0 C1 20.13 1 40.26 1 61 C-2.63 61 -6.26 61 -10 61 C-6 58 -6 58 0 58 C0 38.86 0 19.72 0 0 Z " fill="#F7832C" transform="translate(232,200)"/>
<path d="M0 0 C-2.43789851 2.43789851 -3.83236657 2.57200656 -7.1875 3.1875 C-8.10917969 3.36667969 -9.03085938 3.54585938 -9.98046875 3.73046875 C-13 4 -13 4 -16.11279297 3.53662109 C-20.50228202 2.93066098 -24.79044825 2.77410459 -29.21484375 2.68359375 C-30.07058487 2.66281265 -30.92632599 2.64203156 -31.80799866 2.62062073 C-34.51775776 2.55570046 -37.2276064 2.49651022 -39.9375 2.4375 C-41.78451414 2.39425995 -43.63151952 2.35064399 -45.47851562 2.30664062 C-49.98558741 2.20007881 -54.49274844 2.09865263 -59 2 C-59 1.67 -59 1.34 -59 1 C-52.36551344 0.85592939 -45.73098877 0.71372078 -39.09643555 0.57275391 C-36.84349685 0.52467142 -34.59056693 0.47617622 -32.33764648 0.42724609 C-29.08319326 0.35663808 -25.82871049 0.2875571 -22.57421875 0.21875 C-21.58105148 0.19687622 -20.58788422 0.17500244 -19.56462097 0.15246582 C-13.04210096 0.0164624 -6.52386957 -0.02509391 0 0 Z " fill="#D96B21" transform="translate(163,285)"/>
<path d="M0 0 C4.58165215 0 6.90542669 1.4613016 10.125 4.5 C16.78095705 11.66501686 19.07369624 19.2720961 19 29 C18.71082643 30.67489329 18.38978953 32.3456261 18 34 C17.67 34 17.34 34 17 34 C15.515 23.11 15.515 23.11 14 12 C13.34 12 12.68 12 12 12 C11.67 11.01 11.34 10.02 11 9 C9.5459375 8.2884375 9.5459375 8.2884375 8.0625 7.5625 C4.76214399 5.87864489 4.36203787 5.24793646 3 2 C2.01 1.34 1.02 0.68 0 0 Z " fill="#E78E4A" transform="translate(139,73)"/>
<path d="M0 0 C1.32 0 2.64 0 4 0 C4 1.98 4 3.96 4 6 C5.65 5.67 7.3 5.34 9 5 C9.33 5.66 9.66 6.32 10 7 C9.67 7.66 9.34 8.32 9 9 C8.34 9 7.68 9 7 9 C7.66 13.29 8.32 17.58 9 22 C5.18647326 19.45764884 5.25188357 18.07626028 4.3125 13.6875 C3.93544922 11.99173828 3.93544922 11.99173828 3.55078125 10.26171875 C3.07062319 7.41822952 2.88683493 4.87223716 3 2 C2.34 2 1.68 2 1 2 C1 9.26 1 16.52 1 24 C0.67 24 0.34 24 0 24 C0 16.08 0 8.16 0 0 Z " fill="#D17A37" transform="translate(362,231)"/>
<path d="M0 0 C2.7493631 1.00809981 3.79811013 1.58999912 5.11465454 4.26365662 C6.01345422 7.04158305 6.26489636 9.18555473 6.29052734 12.09399414 C6.30328705 13.08174332 6.31604675 14.06949249 6.32919312 15.08717346 C6.33141876 16.14250778 6.33364441 17.1978421 6.3359375 18.28515625 C6.3425943 19.37839706 6.3492511 20.47163788 6.35610962 21.5980072 C6.36621965 23.90524617 6.37092715 26.21251429 6.37060547 28.51977539 C6.37498869 32.05338353 6.41135487 35.58575252 6.44921875 39.11914062 C6.45508514 41.3619749 6.45905572 43.6048151 6.4609375 45.84765625 C6.47530853 46.9050148 6.48967957 47.96237335 6.50448608 49.05177307 C6.45862367 56.39032303 6.45862367 56.39032303 3.97119141 59.69702148 C3.32069824 60.12700439 2.67020508 60.5569873 2 61 C2.16076523 60.28137283 2.32153046 59.56274567 2.48716736 58.82234192 C2.9810248 56.10442878 3.15643919 53.60093162 3.20532227 50.8425293 C3.22526749 49.84186935 3.24521271 48.84120941 3.26576233 47.81022644 C3.28247482 46.7423439 3.29918732 45.67446136 3.31640625 44.57421875 C3.33718735 43.47149124 3.35796844 42.36876373 3.37937927 41.23262024 C3.44464932 37.71764222 3.50365495 34.20259088 3.5625 30.6875 C3.60570665 28.30142477 3.64932163 25.91535691 3.69335938 23.52929688 C3.8003076 17.68627494 3.90211555 11.84318042 4 6 C3.01 5.67 2.02 5.34 1 5 C0.67 3.35 0.34 1.7 0 0 Z " fill="#E98940" transform="translate(449,195)"/>
<path d="M0 0 C0.99 0 1.98 0 3 0 C2.4171116 3.93449672 0.79316669 6.20683331 -2 9 C-7.8058604 12.49960638 -13.51733015 12.44179781 -20 11 C-23.34917277 9.6244469 -25.45655318 8.54344682 -28 6 C-27.67 5.01 -27.34 4.02 -27 3 C-26.443125 3.9590625 -26.443125 3.9590625 -25.875 4.9375 C-23.35512768 7.70935955 -21.68504781 7.5774827 -18 8 C-15.75137086 8.08889929 -13.5003798 8.13018521 -11.25 8.125 C-9.55617188 8.12886719 -9.55617188 8.12886719 -7.828125 8.1328125 C-5.04978888 8.19354612 -5.04978888 8.19354612 -3 7 C-1.94647157 4.69034152 -0.94280904 2.3570226 0 0 Z " fill="#E89B67" transform="translate(342,250)"/>
<path d="M0 0 C0 0.66 0 1.32 0 2 C-1.8253125 2.4021875 -1.8253125 2.4021875 -3.6875 2.8125 C-8.54202724 4.03042026 -12.86272972 5.96636679 -16 10 C-16.67863055 11.9959722 -17.34641919 13.99568551 -18 16 C-18.66 16.33 -19.32 16.66 -20 17 C-20.46651207 19.12576782 -20.46651207 19.12576782 -20.625 21.5625 C-20.69976562 22.38878906 -20.77453125 23.21507813 -20.8515625 24.06640625 C-20.90054688 24.70449219 -20.94953125 25.34257813 -21 26 C-21.99 26.33 -22.98 26.66 -24 27 C-23.56789091 17.66644358 -20.86621394 11.00900492 -14.00390625 4.546875 C-9.83273853 1.32702623 -5.20289312 -1.73429771 0 0 Z " fill="#E18A4D" transform="translate(121,71)"/>
<path d="M0 0 C5.47729149 0.60858794 5.47729149 0.60858794 7.6484375 2.234375 C9.38326982 4.50068774 9.56159575 6.10951147 9.8125 8.9375 C9.90144531 9.79214844 9.99039062 10.64679688 10.08203125 11.52734375 C9.99271592 14.21956284 9.37443965 15.71280506 8 18 C6.52093108 18.02689216 5.04172517 18.04634621 3.5625 18.0625 C2.32693359 18.07990234 2.32693359 18.07990234 1.06640625 18.09765625 C-1 18 -1 18 -2 17 C-2.07313567 14.46950598 -2.09247527 11.96695163 -2.0625 9.4375 C-2.05798828 8.72658203 -2.05347656 8.01566406 -2.04882812 7.28320312 C-2.03700864 5.52209987 -2.01907263 3.76103964 -2 2 C-1.67 2 -1.34 2 -1 2 C-0.67 6.62 -0.34 11.24 0 16 C1.98 16.33 3.96 16.66 6 17 C6 12.38 6 7.76 6 3 C3.03 2.505 3.03 2.505 0 2 C0 1.34 0 0.68 0 0 Z " fill="#DF8A4B" transform="translate(363,203)"/>
<path d="M0 0 C0.66 0.33 1.32 0.66 2 1 C2 3.97 2 6.94 2 10 C-0.96349281 10.98783094 -2.9712663 11.13410525 -6.0625 11.125 C-7.37927734 11.12886719 -7.37927734 11.12886719 -8.72265625 11.1328125 C-11 11 -11 11 -13 10 C-13 7.03 -13 4.06 -13 1 C-12.01 1 -11.02 1 -10 1 C-10 3.64 -10 6.28 -10 9 C-7.03 9 -4.06 9 -1 9 C-1.020625 7.88625 -1.04125 6.7725 -1.0625 5.625 C-1 2 -1 2 0 0 Z " fill="#EB9862" transform="translate(297,250)"/>
<path d="M0 0 C2.35108558 3.70821628 2.43155058 7.48605238 2.625 11.75 C2.66367188 12.44738281 2.70234375 13.14476562 2.7421875 13.86328125 C2.83598624 15.57510818 2.91906174 17.28751682 3 19 C7.455 20.98 7.455 20.98 12 23 C8.40383184 24.19872272 7.71078361 23.72500287 4.375 22.1875 C3.57835937 21.83042969 2.78171875 21.47335938 1.9609375 21.10546875 C0 20 0 20 -1 18 C-1.09756755 15.71003214 -1.12976516 13.41704047 -1.125 11.125 C-1.12757813 9.89007813 -1.13015625 8.65515625 -1.1328125 7.3828125 C-1.02717861 4.69225511 -0.80529454 2.54370816 0 0 Z " fill="#EA9452" transform="translate(164,217)"/>
<path d="M0 0 C4.30869649 3.63658785 4.76703068 8.72178303 6 14 C6.20882812 14.87914062 6.41765625 15.75828125 6.6328125 16.6640625 C9.46657855 29.55570242 9.46657855 29.55570242 6.5 34.5 C6.005 34.995 5.51 35.49 5 36 C4.34 35.67 3.68 35.34 3 35 C3.66 34.01 4.32 33.02 5 32 C5.45772063 29.26127045 5.45772063 29.26127045 5.625 26.3125 C5.73714844 24.82169922 5.73714844 24.82169922 5.8515625 23.30078125 C5.90054688 22.54152344 5.94953125 21.78226562 6 21 C5.34 21 4.68 21 4 21 C3.79503906 19.81921875 3.59007812 18.6384375 3.37890625 17.421875 C3.10684695 15.86457003 2.83470732 14.3072791 2.5625 12.75 C2.42779297 11.97269531 2.29308594 11.19539062 2.15429688 10.39453125 C1.95610352 9.26337891 1.95610352 9.26337891 1.75390625 8.109375 C1.63345947 7.41811523 1.5130127 6.72685547 1.38891602 6.01464844 C0.99755584 3.98733883 0.51910249 1.99805485 0 0 Z " fill="#E39F6B" transform="translate(178,242)"/>
<path d="M0 0 C0.66 0 1.32 0 2 0 C4.15305957 3.85756507 5.39253254 6.55129785 5 11 C5.66 11 6.32 11 7 11 C7.70173653 15.38585329 8.10834375 19.55790643 8 24 C7.34 24 6.68 24 6 24 C4 16 2 8 0 0 Z " fill="#DB8341" transform="translate(276,208)"/>
<path d="M0 0 C0.33 0 0.66 0 1 0 C0.48258771 5.69153518 -1.14886417 10.71725774 -3.01171875 16.109375 C-4.13027614 19.38104484 -5.09053648 22.66530042 -6 26 C-6.66 26 -7.32 26 -8 26 C-8 28.64 -8 31.28 -8 34 C-8.99 33.67 -9.98 33.34 -11 33 C-7.76321309 21.81121046 -4.44534919 10.7789883 0 0 Z " fill="#EB985D" transform="translate(81,145)"/>
<path d="M0 0 C22.5030012 -0.2484994 22.5030012 -0.2484994 27 2 C27 2.66 27 3.32 27 4 C18.09 4 9.18 4 0 4 C0 2.68 0 1.36 0 0 Z " fill="#D35724" transform="translate(422,192)"/>
<path d="M0 0 C0.99 0.33 1.98 0.66 3 1 C2.34 1 1.68 1 1 1 C0.95101562 1.79921875 0.90203125 2.5984375 0.8515625 3.421875 C-0.58942065 24.58942065 -0.58942065 24.58942065 -4 28 C-4.67886067 18.04337678 -2.69430667 9.47818596 0 0 Z " fill="#D5854F" transform="translate(128,206)"/>
<path d="M0 0 C4.87773605 0.45374289 7.52177888 1.52177888 11 5 C13.8146607 9.62600933 14.33974851 12.99555275 14.1875 18.375 C14.16042969 19.62023437 14.13335937 20.86546875 14.10546875 22.1484375 C14.07066406 23.08945313 14.03585937 24.03046875 14 25 C13.34 24.67 12.68 24.34 12 24 C11.57465411 21.35931095 11.24961597 18.78294787 11 16.125 C10.51628876 10.26472185 10.51628876 10.26472185 8 5 C4.94570927 3.78715124 4.94570927 3.78715124 2 3 C2 2.34 2 1.68 2 1 C1.34 0.67 0.68 0.34 0 0 Z " fill="#DC8E4D" transform="translate(370,193)"/>
<path d="M0 0 C1.12148437 0.00322266 2.24296875 0.00644531 3.3984375 0.00976562 C4.5740625 0.01814453 5.7496875 0.02652344 6.9609375 0.03515625 C8.14429688 0.03966797 9.32765625 0.04417969 10.546875 0.04882812 C13.47661257 0.06064158 16.40625022 0.07711367 19.3359375 0.09765625 C19.3359375 0.75765625 19.3359375 1.41765625 19.3359375 2.09765625 C16.67415529 3.42854735 14.64854354 3.21034618 11.671875 3.1953125 C10.55039063 3.19208984 9.42890625 3.18886719 8.2734375 3.18554688 C7.0978125 3.17716797 5.9221875 3.16878906 4.7109375 3.16015625 C3.52757813 3.15564453 2.34421875 3.15113281 1.125 3.14648438 C-1.80473757 3.13467092 -4.73437522 3.11819883 -7.6640625 3.09765625 C-7.6640625 2.43765625 -7.6640625 1.77765625 -7.6640625 1.09765625 C-5.00228029 -0.23323485 -2.97666854 -0.01503368 0 0 Z " fill="#D2945F" transform="translate(122.6640625,259.90234375)"/>
<path d="M0 0 C0.99 0 1.98 0 3 0 C3.06058594 0.74765625 3.12117187 1.4953125 3.18359375 2.265625 C3.26738281 3.25046875 3.35117188 4.2353125 3.4375 5.25 C3.51871094 6.22453125 3.59992188 7.1990625 3.68359375 8.203125 C3.95074584 10.56461753 4.35371968 12.71901065 5 15 C5.99 15 6.98 15 8 15 C8 15.66 8 16.32 8 17 C4.28339139 16.4574885 2.90947765 15.15932619 0.6875 12.1875 C0.15511719 11.50042969 -0.37726563 10.81335938 -0.92578125 10.10546875 C-2 8 -2 8 -1.703125 5.87890625 C-1.47109375 5.25886719 -1.2390625 4.63882813 -1 4 C-0.814375 3.2575 -0.62875 2.515 -0.4375 1.75 C-0.293125 1.1725 -0.14875 0.595 0 0 Z " fill="#E5904F" transform="translate(134,236)"/>
<path d="M0 0 C2.54283234 -0.10871967 5.08095088 -0.18762401 7.625 -0.25 C8.33785156 -0.28351563 9.05070312 -0.31703125 9.78515625 -0.3515625 C15.14221553 -0.44985717 17.81598483 0.64750835 22 4 C21.67 4.66 21.34 5.32 21 6 C17.68476035 5.38898199 14.37344063 4.75886643 11.0625 4.125 C9.64420898 3.86396484 9.64420898 3.86396484 8.19726562 3.59765625 C7.29814453 3.42363281 6.39902344 3.24960937 5.47265625 3.0703125 C4.64000244 2.91320801 3.80734863 2.75610352 2.94946289 2.59423828 C2.30614014 2.39813965 1.66281738 2.20204102 1 2 C0.67 1.34 0.34 0.68 0 0 Z " fill="#E08748" transform="translate(84,283)"/>
<path d="M0 0 C1.9375 0.6875 1.9375 0.6875 4 2 C4.62890625 4.58203125 4.62890625 4.58203125 5 7 C3.55367187 7.38091797 3.55367187 7.38091797 2.078125 7.76953125 C0.81484375 8.11371094 -0.4484375 8.45789063 -1.75 8.8125 C-3.62945312 9.31716797 -3.62945312 9.31716797 -5.546875 9.83203125 C-8.65300735 10.88263484 -10.56926559 11.85776184 -13 14 C-10.63052289 8.2889526 -5.44699414 6.07055994 0 3.6875 C0.66 3.460625 1.32 3.23375 2 3 C1.34 2.01 0.68 1.02 0 0 Z " fill="#DF8540" transform="translate(104,118)"/>
<path d="M0 0 C7.92 0 15.84 0 24 0 C24 0.33 24 0.66 24 1 C15.92046224 2.81344335 8.26747851 3.23658921 0 3 C0 2.01 0 1.02 0 0 Z " fill="#E79962" transform="translate(122,257)"/>
<path d="M0 0 C3.58818958 5.38228438 2.33108025 12.5168981 1.5 18.75 C1.335 19.4925 1.17 20.235 1 21 C0.34 21 -0.32 21 -1 21 C-1 22.98 -1 24.96 -1 27 C-3.22417668 23.50250284 -3.01213545 21.43299178 -2.1875 17.4375 C-1.08078876 11.63262104 -0.44054651 5.88941123 0 0 Z " fill="#E59155" transform="translate(96,182)"/>
<path d="M0 0 C14.78132118 -0.3690205 14.78132118 -0.3690205 21 2 C21 2.33 21 2.66 21 3 C14.4 3 7.8 3 1 3 C1 6.3 1 9.6 1 13 C0.67 13 0.34 13 0 13 C0 8.71 0 4.42 0 0 Z " fill="#D76A24" transform="translate(351,192)"/>
<path d="M0 0 C1 3 1 3 0.07421875 5.2265625 C-0.38339844 6.01804687 -0.84101563 6.80953125 -1.3125 7.625 C-1.76238281 8.42164062 -2.21226562 9.21828125 -2.67578125 10.0390625 C-4 12 -4 12 -6 13 C-2.535 14.98 -2.535 14.98 1 17 C-2.06890187 18.53445094 -4.70094266 17.54984289 -8 17 C-9 14 -9 14 -7.75 10.9375 C-6 8 -6 8 -3 6 C-1.93753473 4.03247172 -0.92862192 2.03412421 0 0 Z " fill="#E79354" transform="translate(155,107)"/>
<path d="M0 0 C1.65322266 0.01740234 1.65322266 0.01740234 3.33984375 0.03515625 C4.99693359 0.04869141 4.99693359 0.04869141 6.6875 0.0625 C7.54214844 0.07410156 8.39679688 0.08570313 9.27734375 0.09765625 C8.94734375 0.75765625 8.61734375 1.41765625 8.27734375 2.09765625 C4.97734375 2.09765625 1.67734375 2.09765625 -1.72265625 2.09765625 C-1.72265625 7.04765625 -1.72265625 11.99765625 -1.72265625 17.09765625 C-3.72265625 15.09765625 -3.72265625 15.09765625 -3.953125 11.875 C-3.93185547 9.97427734 -3.93185547 9.97427734 -3.91015625 8.03515625 C-3.90371094 6.76542969 -3.89726562 5.49570313 -3.890625 4.1875 C-3.67014213 0.13164068 -3.67014213 0.13164068 0 0 Z " fill="#E7A667" transform="translate(205.72265625,230.90234375)"/>
<path d="M0 0 C0.66 0 1.32 0 2 0 C3.32845044 7.30647742 3.12695115 13.42976058 -0.75 19.9375 C-3.36839729 22.33769752 -5.58003134 23.14500784 -9 24 C-9 23.34 -9 22.68 -9 22 C-7.20963542 21.0234375 -5.41927083 20.046875 -3.62890625 19.0703125 C-1.83381685 18.08589976 -1.83381685 18.08589976 -1 16 C-0.7677354 13.28737884 -0.58063765 10.59226874 -0.4375 7.875 C-0.39431641 7.12089844 -0.35113281 6.36679688 -0.30664062 5.58984375 C-0.2005168 3.72678112 -0.09974999 1.86341476 0 0 Z " fill="#E89C60" transform="translate(180,172)"/>
<path d="M0 0 C1.99954746 -0.04254356 4.00041636 -0.04080783 6 0 C6.33 0.33 6.66 0.66 7 1 C8.34015221 1.15582303 9.68758903 1.25044142 11.03515625 1.31640625 C11.84404297 1.35830078 12.65292969 1.40019531 13.48632812 1.44335938 C14.33646484 1.48267578 15.18660156 1.52199219 16.0625 1.5625 C16.91650391 1.60568359 17.77050781 1.64886719 18.65039062 1.69335938 C20.76672037 1.79976702 22.88333813 1.90041731 25 2 C25 2.99 25 3.98 25 5 C16.49174287 4.56891497 8.30566989 4.01290353 0 2 C0 1.34 0 0.68 0 0 Z " fill="#B77041" transform="translate(97,255)"/>
<path d="M0 0 C-6.34050572 4.96958557 -13.93528282 7.29167151 -22 7 C-18.70478482 4.80318988 -15.71995598 3.90043997 -11.9609375 2.78125 C-9.81111965 2.17673144 -9.81111965 2.17673144 -9 0 C-2.57142857 -1.28571429 -2.57142857 -1.28571429 0 0 Z " fill="#D58D55" transform="translate(171,251)"/>
<path d="M0 0 C4.95 0 9.9 0 15 0 C15 3.96 15 7.92 15 12 C14.34 12 13.68 12 13 12 C13 8.7 13 5.4 13 2 C8.71 2 4.42 2 0 2 C0 1.34 0 0.68 0 0 Z " fill="#AB6F40" transform="translate(403,248)"/>
<path d="M0 0 C0 0.66 0 1.32 0 2 C-0.78375 2.268125 -1.5675 2.53625 -2.375 2.8125 C-5.28114923 3.84814432 -5.28114923 3.84814432 -7 7 C-7.42084539 9.34019319 -7.42084539 9.34019319 -7.5625 11.875 C-7.84450046 15.31943416 -8.21283557 18.62643817 -9 22 C-9.66 22 -10.32 22 -11 22 C-12.67104743 16.9868577 -11.27340544 12.03914452 -10 7 C-7.62789456 3.04649093 -4.86048027 0 0 0 Z " fill="#E9924E" transform="translate(82,239)"/>
<path d="M0 0 C0.66 0 1.32 0 2 0 C2 0.66 2 1.32 2 2 C3.65 2 5.3 2 7 2 C6.01 2.495 6.01 2.495 5 3 C5.14053872 5.62538284 5.28718947 8.25017427 5.4375 10.875 C5.47681641 11.62136719 5.51613281 12.36773437 5.55664062 13.13671875 C5.71573624 17.19986864 5.71573624 17.19986864 7 21 C5.68 20.67 4.36 20.34 3 20 C2.92652344 18.28490234 2.92652344 18.28490234 2.8515625 16.53515625 C2.77654811 15.04424527 2.70099972 13.55336108 2.625 12.0625 C2.5940625 11.30775391 2.563125 10.55300781 2.53125 9.77539062 C2.4273685 7.84492605 2.22104386 5.92057919 2 4 C1.34 3.67 0.68 3.34 0 3 C0 2.01 0 1.02 0 0 Z " fill="#E46F19" transform="translate(396,229)"/>
<path d="M0 0 C0.66 0 1.32 0 2 0 C2.39008806 2.74862047 2.76250503 5.4977234 3.125 8.25 C3.23714844 9.02730469 3.34929687 9.80460938 3.46484375 10.60546875 C4.37751589 17.72431144 4.37751589 17.72431144 2 21 C0.13867327 16.29538677 -0.2509496 12.1242304 -0.125 7.125 C-0.11146484 6.09246094 -0.11146484 6.09246094 -0.09765625 5.0390625 C-0.07432513 3.35922162 -0.03846326 1.67956254 0 0 Z " fill="#CA753B" transform="translate(161,195)"/>
<path d="M0 0 C1.85772162 0.08984301 3.71247985 0.24611861 5.5625 0.4375 C7.08037109 0.59025391 7.08037109 0.59025391 8.62890625 0.74609375 C9.80259766 0.87177734 9.80259766 0.87177734 11 1 C11 1.33 11 1.66 11 2 C7.7 2 4.4 2 1 2 C1 8.93 1 15.86 1 23 C0.67 23 0.34 23 0 23 C-0.7912699 15.69488327 -1.46116563 8.35152271 -1 1 C-0.67 0.67 -0.34 0.34 0 0 Z " fill="#EE843D" transform="translate(221,192)"/>
<path d="M0 0 C2 1 2 1 3.125 3.1875 C4.08328236 6.26769331 4.14915816 8.79309948 4 12 C3.67 10.68 3.34 9.36 3 8 C1.68 8.33 0.36 8.66 -1 9 C-1.33 10.32 -1.66 11.64 -2 13 C-2 11.68 -2 10.36 -2 9 C-2.99 9.33 -3.98 9.66 -5 10 C-5 8.68 -5 7.36 -5 6 C-3.35 6 -1.7 6 0 6 C-0.7763932 2.9254644 -0.7763932 2.9254644 -3 1 C-2.01 0.67 -1.02 0.34 0 0 Z " fill="#E97629" transform="translate(176,240)"/>
<path d="M0 0 C5.94 0 11.88 0 18 0 C14.07017544 3.92982456 14.07017544 3.92982456 9.1875 4.25 C5.38167954 4.21533861 3.05426618 3.38614546 0 1 C0 0.67 0 0.34 0 0 Z " fill="#D77E3A" transform="translate(76,196)"/>
<path d="M0 0 C1.485 0.99 1.485 0.99 3 2 C3 3.65 3 5.3 3 7 C6.63 7 10.26 7 14 7 C14.33 5.68 14.66 4.36 15 3 C15.33 4.98 15.66 6.96 16 9 C13.87506859 9.02693575 11.75004088 9.04636628 9.625 9.0625 C8.44164062 9.07410156 7.25828125 9.08570313 6.0390625 9.09765625 C3 9 3 9 1 8 C0.40644386 5.35139573 0.25790731 2.70802678 0 0 Z " fill="#F6B786" transform="translate(369,252)"/>
<path d="M0 0 C1.98 0.99 3.96 1.98 6 3 C6.33 2.34 6.66 1.68 7 1 C6.67 2.65 6.34 4.3 6 6 C9.3 6 12.6 6 16 6 C11.5889269 9.30830483 10.30317127 9.57852777 5 9 C3.0625 7.5 3.0625 7.5 2 6 C2.33 5.34 2.66 4.68 3 4 C2.01 4 1.02 4 0 4 C0 2.68 0 1.36 0 0 Z " fill="#D26B23" transform="translate(136,250)"/>
<path d="M0 0 C0.66 0.33 1.32 0.66 2 1 C2 5.95 2 10.9 2 16 C1.34 15.67 0.68 15.34 0 15 C0.33 12.69 0.66 10.38 1 8 C0.34 8 -0.32 8 -1 8 C-1.33 9.32 -1.66 10.64 -2 12 C-3.15957207 8.52128379 -2.77456651 7.65780355 -1.5625 4.3125 C-1.13130859 3.10013672 -1.13130859 3.10013672 -0.69140625 1.86328125 C-0.46324219 1.24839844 -0.23507813 0.63351563 0 0 Z " fill="#E66D1D" transform="translate(102,154)"/>
<path d="M0 0 C2.29349068 0.44911697 4.58476218 0.90957944 6.875 1.375 C8.78925781 1.75785156 8.78925781 1.75785156 10.7421875 2.1484375 C14 3 14 3 16 5 C13.89611431 5.05402274 11.79183286 5.09280256 9.6875 5.125 C7.92986328 5.15980469 7.92986328 5.15980469 6.13671875 5.1953125 C3 5 3 5 0 3 C0 2.01 0 1.02 0 0 Z " fill="#E1813E" transform="translate(90,256)"/>
<path d="M0 0 C0.99 0.33 1.98 0.66 3 1 C2.55005243 2.79379098 2.08975857 4.58498928 1.625 6.375 C1.36976563 7.37273437 1.11453125 8.37046875 0.8515625 9.3984375 C0 12 0 12 -2 14 C-2.66 12.35 -3.32 10.7 -4 9 C-3.34 9 -2.68 9 -2 9 C-1.7834375 7.329375 -1.7834375 7.329375 -1.5625 5.625 C-1 2 -1 2 0 0 Z " fill="#E18335" transform="translate(308,192)"/>
<path d="M0 0 C1.65 0 3.3 0 5 0 C5 0.99 5 1.98 5 3 C7.64 3 10.28 3 13 3 C12.67 3.66 12.34 4.32 12 5 C5.375 5.25 5.375 5.25 2 3 C1.67 3.33 1.34 3.66 1 4 C-0.85287502 4.07226502 -2.70833878 4.0838122 -4.5625 4.0625 C-5.57441406 4.05347656 -6.58632812 4.04445313 -7.62890625 4.03515625 C-8.41136719 4.02355469 -9.19382813 4.01195312 -10 4 C-10 3.67 -10 3.34 -10 3 C-6.7 3 -3.4 3 0 3 C0 2.01 0 1.02 0 0 Z " fill="#EC995E" transform="translate(259,256)"/>
<path d="M0 0 C4.29 0 8.58 0 13 0 C13.33 3.63 13.66 7.26 14 11 C12.35 11 10.7 11 9 11 C9 10.34 9 9.68 9 9 C9.66 8.67 10.32 8.34 11 8 C10.7215625 6.824375 10.7215625 6.824375 10.4375 5.625 C10 3 10 3 11 1 C7.37 1 3.74 1 0 1 C0 0.67 0 0.34 0 0 Z " fill="#F28A40" transform="translate(403,250)"/>
<path d="M0 0 C0.99 0.33 1.98 0.66 3 1 C3.33 3.64 3.66 6.28 4 9 C3.67 8.34 3.34 7.68 3 7 C2.34 7 1.68 7 1 7 C1.33 9.64 1.66 12.28 2 15 C-0.45406016 12.54593984 -0.38381215 11.4528512 -0.6875 8.0625 C-0.77386719 7.18722656 -0.86023438 6.31195313 -0.94921875 5.41015625 C-1 3 -1 3 0 0 Z " fill="#E9762A" transform="translate(158,174)"/>
<path d="M0 0 C0.99 0.495 0.99 0.495 2 1 C1.98839844 1.94101563 1.97679687 2.88203125 1.96484375 3.8515625 C1.95582031 5.09679687 1.94679687 6.34203125 1.9375 7.625 C1.92589844 8.85476562 1.91429687 10.08453125 1.90234375 11.3515625 C1.99147579 14.68153568 2.44800989 17.72485867 3 21 C2.7355646 23.34214207 2.41755362 25.68025766 2 28 C1.67 28 1.34 28 1 28 C-0.05838127 21.99139451 -0.11662571 16.15372439 -0.0625 10.0625 C-0.05798828 9.09248047 -0.05347656 8.12246094 -0.04882812 7.12304688 C-0.0371315 4.7486324 -0.02074086 2.37434979 0 0 Z " fill="#E4762C" transform="translate(201,231)"/>
<path d="M0 0 C3.3 0 6.6 0 10 0 C10 6.27 10 12.54 10 19 C9.67 19 9.34 19 9 19 C9 14.05 9 9.1 9 4 C7.68 4 6.36 4 5 4 C5 3.34 5 2.68 5 2 C3.35 1.67 1.7 1.34 0 1 C0 0.67 0 0.34 0 0 Z " fill="#D45D1A" transform="translate(334,192)"/>
<path d="M0 0 C3 2 3 2 3.66015625 3.91796875 C3.79292969 4.66691406 3.92570312 5.41585937 4.0625 6.1875 C4.83765766 10.21310869 5.82992766 14.07190001 7 18 C2.95264016 14.65046083 1.28887086 10.98363401 0 6 C-0.1875 2.5 -0.1875 2.5 0 0 Z " fill="#DF8A45" transform="translate(97,100)"/>
<path d="M0 0 C0.33 1.32 0.66 2.64 1 4 C0.01 4.66 -0.98 5.32 -2 6 C-2.57993699 8.19454681 -2.57993699 8.19454681 -2.6875 10.625 C-2.78611328 11.85089844 -2.78611328 11.85089844 -2.88671875 13.1015625 C-2.94279297 14.04128906 -2.94279297 14.04128906 -3 15 C-3.99 15.33 -4.98 15.66 -6 16 C-5.58846263 11.02906176 -5.20399168 6.55491614 -3 2 C-2.34 2 -1.68 2 -1 2 C-0.67 1.34 -0.34 0.68 0 0 Z " fill="#D7763B" transform="translate(103,82)"/>
<path d="M0 0 C0.33 1.32 0.66 2.64 1 4 C2.27875 4.020625 3.5575 4.04125 4.875 4.0625 C5.59429687 4.07410156 6.31359375 4.08570313 7.0546875 4.09765625 C9.08185404 4.12649242 9.08185404 4.12649242 11 3 C11.33 3.99 11.66 4.98 12 6 C9.59454362 7.20272819 8.05003047 7.10071472 5.375 7.0625 C4.14910156 7.04896484 4.14910156 7.04896484 2.8984375 7.03515625 C1.95871094 7.01775391 1.95871094 7.01775391 1 7 C0.67 4.69 0.34 2.38 0 0 Z " fill="#CA642A" transform="translate(123,230)"/>
<path d="M0 0 C1.62490954 -0.02698189 3.24994633 -0.04638757 4.875 -0.0625 C5.77992188 -0.07410156 6.68484375 -0.08570313 7.6171875 -0.09765625 C10 0 10 0 12 1 C12.625 4.0625 12.625 4.0625 13 7 C12.34 7 11.68 7 11 7 C11 6.01 11 5.02 11 4 C10.28972656 3.87882813 9.57945312 3.75765625 8.84765625 3.6328125 C7.92855469 3.46523437 7.00945312 3.29765625 6.0625 3.125 C4.68771484 2.88136719 4.68771484 2.88136719 3.28515625 2.6328125 C2.53105469 2.42398438 1.77695312 2.21515625 1 2 C0.67 1.34 0.34 0.68 0 0 Z " fill="#A05828" transform="translate(275,192)"/>
<path d="M0 0 C0.33 0 0.66 0 1 0 C1.125 6.625 1.125 6.625 0 10 C2.31 10 4.62 10 7 10 C7.33 10.66 7.66 11.32 8 12 C0.25 12.125 0.25 12.125 -2 11 C-2 9.02 -2 7.04 -2 5 C-1.34 5 -0.68 5 0 5 C0 3.35 0 1.7 0 0 Z " fill="#E89C4F" transform="translate(422,249)"/>
<path d="M0 0 C2.95256484 0.32806276 4.75248887 0.82320634 7.1875 2.5625 C9.68632516 5.92298901 10.18103688 8.90518438 11 13 C10.34 13 9.68 13 9 13 C8.54625 12.05125 8.0925 11.1025 7.625 10.125 C6.19761746 6.99686321 6.19761746 6.99686321 4 5 C4 4.01 4 3.02 4 2 C2.68 1.34 1.36 0.68 0 0 Z " fill="#ED9351" transform="translate(261,193)"/>
<path d="M0 0 C0 3.96 0 7.92 0 12 C-2 10 -2 10 -2.1953125 7.8359375 C-2.13020833 5.55729167 -2.06510417 3.27864583 -2 1 C-4.97 1 -7.94 1 -11 1 C-11 0.67 -11 0.34 -11 0 C-3.375 -1.125 -3.375 -1.125 0 0 Z " fill="#824F2B" transform="translate(219,193)"/>
<path d="M0 0 C0.98484375 0.00902344 1.9696875 0.01804687 2.984375 0.02734375 C4.10585937 0.04474609 4.10585937 0.04474609 5.25 0.0625 C2.62548383 2.68701617 0.7622172 2.6457868 -2.875 3.1875 C-3.97070312 3.35507812 -5.06640625 3.52265625 -6.1953125 3.6953125 C-7.45988281 3.87707031 -7.45988281 3.87707031 -8.75 4.0625 C-9.08 3.0725 -9.41 2.0825 -9.75 1.0625 C-6.43929162 0.06140485 -3.44915231 -0.04106134 0 0 Z " fill="#E29253" transform="translate(157.75,284.9375)"/>
<path d="M0 0 C0.556875 0.928125 0.556875 0.928125 1.125 1.875 C3.48622906 4.5510596 5.60131652 5.0936844 9 6 C9 6.66 9 7.32 9 8 C9.66 8.33 10.32 8.66 11 9 C6.21760558 9 4.70642288 7.90067878 1 5 C-0.375 2.75 -0.375 2.75 -1 1 C-0.67 0.67 -0.34 0.34 0 0 Z " fill="#E4954F" transform="translate(71,273)"/>
<path d="M0 0 C0 3.63 0 7.26 0 11 C-0.99 11 -1.98 11 -3 11 C-3 7.7 -3 4.4 -3 1 C-1 0 -1 0 0 0 Z " fill="#AF7445" transform="translate(414,220)"/>
<path d="M0 0 C0.99 0.33 1.98 0.66 3 1 C3 4.63 3 8.26 3 12 C2.01 11.67 1.02 11.34 0 11 C0 7.37 0 3.74 0 0 Z " fill="#D27342" transform="translate(415,192)"/>
<path d="M0 0 C0.33 0 0.66 0 1 0 C1.33 4.62 1.66 9.24 2 14 C1.01 14.33 0.02 14.66 -1 15 C-1.02715383 13.25008666 -1.04646551 11.50005055 -1.0625 9.75 C-1.07410156 8.77546875 -1.08570313 7.8009375 -1.09765625 6.796875 C-1.01195577 4.34241322 -0.70706066 2.33831086 0 0 Z " fill="#D06B27" transform="translate(297,237)"/>
<path d="M0 0 C0.99 0.33 1.98 0.66 3 1 C2.34 5.95 1.68 10.9 1 16 C0.67 16 0.34 16 0 16 C0 10.72 0 5.44 0 0 Z " fill="#E36E24" transform="translate(284,235)"/>
<path d="M0 0 C0.66 0 1.32 0 2 0 C2 2.97 2 5.94 2 9 C3.32 9 4.64 9 6 9 C6 9.66 6 10.32 6 11 C4.33388095 11.042721 2.66617115 11.04063832 1 11 C0 10 0 10 -0.09765625 7.71484375 C-0.08605469 6.79832031 -0.07445312 5.88179687 -0.0625 4.9375 C-0.05347656 4.01839844 -0.04445312 3.09929687 -0.03515625 2.15234375 C-0.02355469 1.44207031 -0.01195312 0.73179687 0 0 Z " fill="#F3C088" transform="translate(253,224)"/>
<path d="M0 0 C1.70884005 1.62339805 3.37446717 3.29319053 5 5 C5 5.66 5 6.32 5 7 C6.32 7 7.64 7 9 7 C9 7.66 9 8.32 9 9 C9.66 9.33 10.32 9.66 11 10 C7.06089933 9.72517902 5.24636457 9.19816281 2.125 6.6875 C0 4 0 4 0 0 Z " fill="#E3873C" transform="translate(86,246)"/>
<path d="M0 0 C0 0.66 0 1.32 0 2 C5.61 2 11.22 2 17 2 C17 2.33 17 2.66 17 3 C10.07 3 3.14 3 -4 3 C-4 2.34 -4 1.68 -4 1 C-2 0 -2 0 0 0 Z " fill="#E9883B" transform="translate(119,260)"/>
<path d="M0 0 C0.33 0.99 0.66 1.98 1 3 C-2.63 3 -6.26 3 -10 3 C-5.78492722 -0.16130459 -4.93928888 -0.3367697 0 0 Z " fill="#F88F50" transform="translate(232,258)"/>
<path d="M0 0 C0.99 0 1.98 0 3 0 C2.42531075 3.87915244 0.62115553 6.14756605 -2 9 C-2.99 9.33 -3.98 9.66 -5 10 C-5 9.34 -5 8.68 -5 8 C-4.34 7.67 -3.68 7.34 -3 7 C-1.94647157 4.69034152 -0.94280904 2.3570226 0 0 Z " fill="#EB964D" transform="translate(342,250)"/>
<path d="M0 0 C0.66 0.33 1.32 0.66 2 1 C2 1.66 2 2.32 2 3 C-0.31 3.66 -2.62 4.32 -5 5 C-5.33 3.35 -5.66 1.7 -6 0 C-3 -1 -3 -1 0 0 Z " fill="#C75E20" transform="translate(303,193)"/>
<path d="M0 0 C0.66 0 1.32 0 2 0 C2 0.66 2 1.32 2 2 C2.66 2 3.32 2 4 2 C3.979375 3.0725 3.95875 4.145 3.9375 5.25 C3.9857984 8.14790424 4.13155885 10.28612141 5 13 C4.34 13 3.68 13 3 13 C2.49487756 11.39743892 1.99608373 9.79288208 1.5 8.1875 C1.2215625 7.29417969 0.943125 6.40085938 0.65625 5.48046875 C0 3 0 3 0 0 Z " fill="#CC8658" transform="translate(272,193)"/>
<path d="M0 0 C0.66 0 1.32 0 2 0 C2.39012425 1.76756294 2.7616098 3.53924783 3.125 5.3125 C3.33382812 6.29863281 3.54265625 7.28476563 3.7578125 8.30078125 C4 11 4 11 2 14 C1.663389 12.22978678 1.33082707 10.45880326 1 8.6875 C0.814375 7.70136719 0.62875 6.71523437 0.4375 5.69921875 C0 3 0 3 0 0 Z " fill="#EA9256" transform="translate(159,181)"/>
<path d="M0 0 C0.66 0.33 1.32 0.66 2 1 C1.4671374 5.52933207 -0.38371282 8.32084616 -3 12 C-3.33 12.66 -3.66 13.32 -4 14 C-4.6875 12.1875 -4.6875 12.1875 -5 10 C-4 9 -3 8 -2 7 C-1.25613932 4.69011685 -0.57809297 2.35684056 0 0 Z " fill="#EB9F62" transform="translate(381,218)"/>
<path d="M0 0 C0.99 0.33 1.98 0.66 3 1 C3 3.64 3 6.28 3 9 C2.01 9 1.02 9 0 9 C0 6.03 0 3.06 0 0 Z " fill="#B76229" transform="translate(70,178)"/>
<path d="M0 0 C0.66 0 1.32 0 2 0 C1.67 1.98 1.34 3.96 1 6 C4.3 6.66 7.6 7.32 11 8 C6.78347832 9.05413042 4.21920566 8.79607654 0 8 C-1 7 -1 7 -1.125 4 C-1 1 -1 1 0 0 Z " fill="#E6721E" transform="translate(146,117)"/>
<path d="M0 0 C1.5 1.3125 1.5 1.3125 3 3 C3 3.99 3 4.98 3 6 C2.34 6 1.68 6 1 6 C0.67 8.31 0.34 10.62 0 13 C-0.33 13 -0.66 13 -1 13 C-1.07654536 8.48382401 -1.10228696 4.40914783 0 0 Z " fill="#E86A15" transform="translate(157,168)"/>
<path d="M0 0 C6.625 -0.25 6.625 -0.25 10 2 C9.67 2.66 9.34 3.32 9 4 C5.7 3.34 2.4 2.68 -1 2 C-0.67 1.34 -0.34 0.68 0 0 Z " fill="#ED9356" transform="translate(96,285)"/>
<path d="M0 0 C0.66 0.66 1.32 1.32 2 2 C1.34 2 0.68 2 0 2 C0 3.98 0 5.96 0 8 C-1.32 8.33 -2.64 8.66 -4 9 C-3.66666667 7.66666667 -3.33333333 6.33333333 -3 5 C-2.855625 4.278125 -2.71125 3.55625 -2.5625 2.8125 C-2.376875 2.214375 -2.19125 1.61625 -2 1 C-1.34 0.67 -0.68 0.34 0 0 Z " fill="#E66C16" transform="translate(326,247)"/>
<path d="M0 0 C4.87362847 0.45336079 7.39042389 1.7089159 11 5 C10.67 5.66 10.34 6.32 10 7 C9.34 6.34 8.68 5.68 8 5 C6.01643517 4.28591666 4.01684563 3.61382258 2 3 C2 2.34 2 1.68 2 1 C1.34 0.67 0.68 0.34 0 0 Z " fill="#EA8F55" transform="translate(370,193)"/>
<path d="M0 0 C0.33 0.99 0.66 1.98 1 3 C-0.75 5.4375 -0.75 5.4375 -3 8 C-4.00573778 9.32901064 -5.00795408 10.66073801 -6 12 C-5.43958106 7.23643901 -3.41302403 3.41302403 0 0 Z " fill="#E4934D" transform="translate(89,132)"/>
<path d="M0 0 C-2.55068845 2.35448165 -3.71017358 2.98327924 -7.25 3.1875 C-8.1575 3.125625 -9.065 3.06375 -10 3 C-9.67 2.01 -9.34 1.02 -9 0 C-2.25 -1.125 -2.25 -1.125 0 0 Z " fill="#ED873F" transform="translate(171,251)"/>
<path d="M0 0 C2.42130331 2.42130331 2.52840504 3.80111377 3.125 7.125 C3.29257812 8.03507813 3.46015625 8.94515625 3.6328125 9.8828125 C3.81457031 10.93082031 3.81457031 10.93082031 4 12 C3.34 12 2.68 12 2 12 C0.86235649 7.73383684 0 4.43513689 0 0 Z " fill="#EEA356" transform="translate(378,234)"/>
<path d="M0 0 C0.66 0.33 1.32 0.66 2 1 C1.125 5.75 1.125 5.75 0 8 C-0.66 8 -1.32 8 -2 8 C-2 6.02 -2 4.04 -2 2 C-1.34 2 -0.68 2 0 2 C0 1.34 0 0.68 0 0 Z " fill="#E98F4B" transform="translate(305,205)"/>
<path d="M0 0 C0.99 0 1.98 0 3 0 C3.99 2.97 4.98 5.94 6 9 C2.07699505 6.64619703 1.16142685 4.35535069 0 0 Z " fill="#E5985F" transform="translate(70,187)"/>
<path d="M0 0 C2 2 2 2 2 6 C1.05125 5.979375 0.1025 5.95875 -0.875 5.9375 C-3.90666283 5.77448174 -3.90666283 5.77448174 -6 7 C-5.67 6.01 -5.34 5.02 -5 4 C-3.35 3.67 -1.7 3.34 0 3 C0 2.01 0 1.02 0 0 Z " fill="#DF6B1B" transform="translate(82,238)"/>
<path d="M0 0 C0.33 0.66 0.66 1.32 1 2 C1.66 2 2.32 2 3 2 C3 3.98 3 5.96 3 8 C2.34 8 1.68 8 1 8 C-0.35439668 5.29120665 -0.06501451 2.99066732 0 0 Z " fill="#B86A31" transform="translate(70,259)"/>
<path d="M0 0 C0.33 0 0.66 0 1 0 C1 1.98 1 3.96 1 6 C-0.65 6.33 -2.3 6.66 -4 7 C-4.33 6.34 -4.66 5.68 -5 5 C-4.360625 4.731875 -3.72125 4.46375 -3.0625 4.1875 C-0.66868314 3.11332248 -0.66868314 3.11332248 0 0 Z " fill="#C86D32" transform="translate(173,249)"/>
<path d="M0 0 C0.99 0 1.98 0 3 0 C3.33 1.32 3.66 2.64 4 4 C2.35 4.33 0.7 4.66 -1 5 C-0.67 3.35 -0.34 1.7 0 0 Z " fill="#EF620B" transform="translate(143,251)"/>
<path d="M0 0 C2.64 1.65 5.28 3.3 8 5 C6 6 6 6 3.4375 5.3125 C2.633125 4.879375 1.82875 4.44625 1 4 C0.67 2.68 0.34 1.36 0 0 Z " fill="#E8823E" transform="translate(80,250)"/>
<path d="M0 0 C0.66 0 1.32 0 2 0 C1.67 1.65 1.34 3.3 1 5 C-0.875 5.625 -0.875 5.625 -3 6 C-3.66 5.34 -4.32 4.68 -5 4 C-3.68 4 -2.36 4 -1 4 C-0.67 2.68 -0.34 1.36 0 0 Z " fill="#E98F59" transform="translate(333,244)"/>
<path d="M0 0 C3.0916909 2.52956528 3.90931332 5.22454612 5 9 C2.5 7.875 2.5 7.875 0 6 C-0.3125 2.8125 -0.3125 2.8125 0 0 Z " fill="#CE722C" transform="translate(161,129)"/>
<path d="M0 0 C0.66 0.33 1.32 0.66 2 1 C0.1875 3.5 0.1875 3.5 -2 6 C-2.99 6 -3.98 6 -5 6 C-3.86695008 2.60085025 -2.87481525 1.94745549 0 0 Z " fill="#E16E1C" transform="translate(95,128)"/>
<path d="M0 0 C1.65 0 3.3 0 5 0 C5.33 1.98 5.66 3.96 6 6 C5.01 5.34 4.02 4.68 3 4 C3 3.34 3 2.68 3 2 C2.01 2 1.02 2 0 2 C0 1.34 0 0.68 0 0 Z " fill="#E58C53" transform="translate(438,204)"/>
<path d="M0 0 C2.35171131 0.59861742 4.6859378 1.26924352 7 2 C7.33 2.66 7.66 3.32 8 4 C5.03 3.67 2.06 3.34 -1 3 C-0.67 2.01 -0.34 1.02 0 0 Z " fill="#CF844B" transform="translate(148,121)"/>
<path d="" fill="#000000" transform="translate(0,0)"/>
<path d="" fill="#000000" transform="translate(0,0)"/>
<path d="" fill="#000000" transform="translate(0,0)"/>
</svg>
